<?xml version="1.0" encoding="utf-8"?>
<!-- Generator: Adobe Illustrator 24.0.1, SVG Export Plug-In . SVG Version: 6.00 Build 0)  -->
<svg version="1.1" id="Layer_1" xmlns="http://www.w3.org/2000/svg" xmlns:xlink="http://www.w3.org/1999/xlink" x="0px" y="0px"
	 viewBox="0 0 92.5 78.7" style="enable-background:new 0 0 92.5 78.7;" xml:space="preserve">
<style type="text/css">
	.st0{fill:url(#SVGID_1_);}
</style>
<linearGradient id="SVGID_1_" gradientUnits="userSpaceOnUse" x1="17.0741" y1="-1.5843" x2="77.604" y2="58.9456">
	<stop  offset="0" style="stop-color:#F89948"/>
	<stop  offset="1" style="stop-color:#F3716E"/>
</linearGradient>
<path class="st0" d="M66,0c-7.6,0-14.8,3.4-19.8,9c-5-5.7-12.1-9-19.8-9C11.8,0,0,11.8,0,26.4c0,5.6,1.5,11,4,15.4
	c4,6.7,9.2,12.5,19.8,15.9c1.4,6.2,7.3,7.4,12,7.4c1.8,0,3.6-0.3,5.1-0.8c13.9-4.9,17.6-18.1,17.6-18.1s0,0-0.1,0
	c-1.6,0.7-3.8,1.1-6.2,1.1c-1,0-2.1-0.1-3.1-0.2c-4.3-0.6-6.5-1.7-9.2-2.4c-2.3-0.6-4.6-1-6.5-1c-0.6,0-1.2,0-1.7,0.1
	c-3.7,0.7-6.9,3.4-7.6,7.8c3.8,3.2,11.5,3.8,16.4,3.8c2.6,0,4.5-0.2,4.5-0.2c0,0,0,0,0,0c0,0,0,0-0.1,0.1c0.1,0,0.1-0.1,0.1-0.1
	c-14.1,6.4-31.6-4.5-37.4-16.4c-1.8-3.6-1.9-8.2-1.9-12.2C5.8,15.6,15.5,5,26.4,5c7,0,13.4,3.6,17,9.7l2.8,4.7l2.8-4.7
	C52.7,8.7,59,5,66,5C77,5,85.9,15.5,85.9,26.4c0,26.8-32.6,46.4-40.6,49c-0.8,0.3-1.2,0.9-1.1,2c0.3,1,0.8,1.1,1.3,1.2
	c0.4,0.1,0.9,0.1,1.5-0.1c9.5-3.1,45.5-21.2,45.5-52.2C92.5,11.8,80.6,0,66,0z"/>
</svg>
