<?xml version="1.0" encoding="utf-8"?>
<!-- Generator: Adobe Illustrator 24.0.1, SVG Export Plug-In . SVG Version: 6.00 Build 0)  -->
<svg version="1.1" id="Layer_1" xmlns="http://www.w3.org/2000/svg" xmlns:xlink="http://www.w3.org/1999/xlink" x="0px" y="0px"
	 viewBox="0 0 602.3 183.8" style="enable-background:new 0 0 602.3 183.8;" xml:space="preserve">
<style type="text/css">
	.st0{fill:#FFFFFF;}
</style>
<g>
	<path class="st0" d="M203.4,183.4h-1.8v-15.1h1.8l7.7,12.1h0.1v-12.1h1.8v15.1h-1.8l-7.8-12.1h-0.1L203.4,183.4L203.4,183.4z"/>
	<path class="st0" d="M222,168.3v9.9c0,1.2,0.4,2.2,1.1,2.9c0.7,0.7,1.7,1.1,2.9,1.1c1.2,0,2.1-0.4,2.9-1.1s1.1-1.7,1.1-2.9v-9.9
		h1.8v9.9c0,1.7-0.5,3-1.6,4s-2.4,1.5-4.1,1.5c-1.1,0-2.1-0.2-3-0.7c-0.9-0.5-1.5-1.1-2-2c-0.5-0.9-0.7-1.8-0.7-2.9v-9.8L222,168.3
		L222,168.3z"/>
	<path class="st0" d="M243.7,183.4h-1.8v-13.6h-4.6v-1.6h11.1v1.6h-4.6L243.7,183.4L243.7,183.4z"/>
	<path class="st0" d="M259.5,168.3c0.8,0,1.5,0.1,2.1,0.4s1.1,0.6,1.5,1c0.4,0.4,0.7,0.9,0.9,1.4s0.3,1.1,0.3,1.7
		c0,1.1-0.3,2.1-0.8,2.7c-0.5,0.7-1.2,1.2-2,1.5l3.1,6.4h-2l-2.8-6.1h-3.8v6.1h-1.8v-15.1H259.5z M255.9,175.8h3.3
		c1.1,0,1.9-0.2,2.4-0.7s0.8-1.2,0.8-2.1c0-1-0.3-1.7-0.9-2.2c-0.6-0.5-1.3-0.8-2.3-0.8h-3.4L255.9,175.8L255.9,175.8z"/>
	<path class="st0" d="M273,183.4h-1.8v-15.1h1.8V183.4z"/>
	<path class="st0" d="M281.5,174.8v2.2c0,1.7,0.4,3,1.1,3.8c0.7,0.9,1.8,1.3,3.1,1.3c1.2,0,2.1-0.3,2.7-0.9s1-1.4,1-2.3h1.7
		c0,0.5-0.1,1.1-0.3,1.6s-0.5,1.1-1,1.6c-0.4,0.5-1,0.9-1.7,1.2c-0.7,0.3-1.6,0.4-2.5,0.4c-1.8,0-3.2-0.6-4.3-1.7s-1.6-2.8-1.6-5
		v-2.3c0-2.1,0.5-3.8,1.6-5c1.1-1.2,2.5-1.8,4.3-1.8c0.9,0,1.7,0.1,2.4,0.4c0.7,0.3,1.3,0.7,1.7,1.2s0.8,1,1,1.6
		c0.2,0.6,0.4,1.2,0.4,1.8h-1.7c0-0.9-0.3-1.7-1-2.4c-0.7-0.7-1.6-1.1-2.8-1.1c-1.2,0-2.2,0.4-3,1.4
		C281.9,171.8,281.5,173.1,281.5,174.8z"/>
	<path class="st0" d="M299.7,183.4h-1.8v-15.1h1.8V183.4z"/>
	<path class="st0" d="M306.5,177.1v-2.3c0-2.1,0.5-3.8,1.6-5s2.5-1.8,4.4-1.8c1.8,0,3.3,0.6,4.4,1.8c1.1,1.2,1.6,2.9,1.6,5v2.3
		c0,2.1-0.5,3.8-1.6,4.9c-1.1,1.2-2.5,1.8-4.4,1.8c-1.8,0-3.3-0.6-4.4-1.8C307,180.8,306.5,179.2,306.5,177.1z M308.2,174.8v2.3
		c0,0.8,0.1,1.6,0.3,2.2s0.5,1.2,0.9,1.6c0.4,0.4,0.8,0.7,1.3,0.9s1,0.3,1.7,0.3c0.6,0,1.2-0.1,1.7-0.3s1-0.5,1.4-0.9
		c0.4-0.4,0.7-0.9,0.9-1.6s0.3-1.4,0.3-2.2v-2.3c0-1.7-0.4-3-1.2-3.9c-0.8-0.9-1.8-1.4-3.1-1.4c-1.2,0-2.3,0.4-3,1.4
		C308.6,171.8,308.2,173.1,308.2,174.8z"/>
	<path class="st0" d="M327.1,183.4h-1.8v-15.1h1.8l7.7,12.1h0.1v-12.1h1.8v15.1h-1.8l-7.8-12.1h-0.1L327.1,183.4L327.1,183.4z"/>
	<path class="st0" d="M345.9,183.4h-1.8v-15.1h1.8V183.4z"/>
	<path class="st0" d="M352.1,179.4h1.8c0.1,0.8,0.5,1.5,1.1,2c0.7,0.5,1.6,0.8,2.7,0.8c1.1,0,1.9-0.2,2.6-0.7s1-1.2,1-2
		c0-0.6-0.2-1.1-0.6-1.5c-0.4-0.4-1-0.7-1.9-0.9l-2.7-0.7c-1-0.3-1.9-0.7-2.5-1.4c-0.7-0.6-1-1.5-1-2.6c0-0.9,0.2-1.7,0.8-2.4
		s1.1-1.2,1.9-1.5c0.8-0.3,1.6-0.5,2.5-0.5c0.6,0,1.3,0.1,1.9,0.2s1.1,0.4,1.6,0.8c0.5,0.3,0.9,0.8,1.2,1.4s0.5,1.2,0.5,1.9h-1.8
		c-0.1-0.8-0.4-1.4-1-1.9c-0.6-0.5-1.4-0.7-2.5-0.7c-1,0-1.8,0.2-2.4,0.7c-0.6,0.4-0.9,1.1-0.9,1.9c0,1.2,0.7,1.9,2.1,2.3l2.6,0.7
		c1.3,0.4,2.2,0.9,2.9,1.5c0.7,0.6,1,1.5,1,2.6c0,1.4-0.5,2.6-1.6,3.3s-2.4,1.2-4,1.2c-0.9,0-1.8-0.1-2.5-0.4
		c-0.7-0.3-1.3-0.6-1.7-1.1s-0.7-0.9-0.9-1.4C352.2,180.4,352.1,179.9,352.1,179.4z"/>
	<path class="st0" d="M374.5,183.4h-1.8v-13.6h-4.6v-1.6h11v1.6h-4.6L374.5,183.4L374.5,183.4z"/>
	<path class="st0" d="M385.2,183.4h-1.8l5.5-15.1h1.7l5.4,15.1h-1.9l-1.6-4.7h-5.7L385.2,183.4z M389.7,170.5L389.7,170.5l-2.4,6.9
		h4.7L389.7,170.5z"/>
</g>
<path class="st0" d="M318.7,0c-7.8,0-15.3,3.5-20.4,9.2C293.2,3.4,285.9,0,278,0c-15,0-27.2,12.2-27.2,27.2c0,5.7,1.5,11.3,4.2,15.8
	c4.1,6.9,9.4,12.9,20.4,16.3c1.5,6.3,7.5,7.6,12.3,7.6c1.9,0,3.6-0.3,5.2-0.8c14.3-5,18.1-18.6,18.1-18.6s0,0,0,0
	c-1.7,0.7-3.9,1.2-6.4,1.2c-1,0-2.1-0.1-3.2-0.2c-4.5-0.6-6.7-1.8-9.4-2.5c-2.3-0.6-4.7-1.1-6.6-1.1c-0.6,0-1.2,0-1.7,0.1
	c-3.8,0.7-7,3.5-7.8,8c3.9,3.3,11.8,3.9,16.9,3.9c2.7,0,4.6-0.2,4.6-0.2c0,0,0,0,0,0c0,0,0,0-0.1,0.1c0.1,0,0.1-0.1,0.1-0.1
	c-14.5,6.6-32.5-4.6-38.4-16.9c-1.8-3.7-1.9-8.4-1.9-12.6c0-11.2,10-22,21.2-22c7.2,0,13.7,3.7,17.5,9.9l2.9,4.9l2.9-4.9
	c3.7-6.2,10.2-9.9,17.5-9.9c11.2,0,20.4,10.7,20.4,22c0,27.5-33.5,47.7-41.8,50.4c-0.8,0.3-1.3,0.9-1.1,2.1c0.4,1,0.8,1.2,1.3,1.3
	c0.4,0.1,0.9,0.1,1.6-0.1c9.8-3.2,46.8-21.8,46.8-53.7C345.9,12.2,333.7,0,318.7,0z"/>
<g>
	<g>
		<path class="st0" d="M47.3,143.6c-2-0.1-4.3-0.3-6.5-1.2c-3.5-1.3-5.5-3.9-6-7.5c-0.8-5.4,0.2-10.6,2.7-15.5
			c1.6-3.2,4.2-4.6,7.8-4.3c1.7,0.1,3.4,0.3,5.1,0.8c0.7,0.2,1.5,0.4,2.1,0.9c1.4,0.9,1.8,2.2,1.1,3.7c-0.8,1.7-2,3.1-3.5,4.4
			c-1.9,1.6-3.8,3.2-5.9,4.6c-0.6,0.4-0.9,0.9-1,1.6c-0.2,2.1,0,4.2,0.6,6.3c0.4,1.2,1,2.3,1.9,3.1c0.8,0.7,1.6,0.9,2.6,0.7
			c2.2-0.6,4.3-1.6,6.3-2.8c3.4-2.1,6.7-4.3,9.3-7.4c1.7-2,3.2-4.2,4.4-6.6c0.2-0.4,0.4-0.8,0.7-1.1c0.2-0.2,0.4-0.2,0.7-0.1
			c0.3,0.1,0.3,0.4,0.2,0.6c-1.5,3.9-3.1,7.9-6.1,11c-2.4,2.5-5.1,4.7-8,6.5C53.3,142.9,50.6,143.6,47.3,143.6z M43.9,127.4
			c2.1-1.5,4.1-3,5.8-4.9c0.5-0.6,0.8-1.2,1.1-1.9c0.3-0.9,0.2-1.7-0.3-2.5c-0.3-0.5-0.7-0.6-1.2-0.3c-1.1,0.6-2,1.5-2.7,2.5
			C45.2,122.6,44.4,124.9,43.9,127.4z"/>
		<path class="st0" d="M68.3,121.4c1.7,0.1,3,0.3,4.4,0.3c1,0.1,1.9,0.2,2.8,0.4c2,0.4,3.4,1.6,4.3,3.5c0.9,2,1.3,4,0.7,6.1
			c-0.8,2.9-1.7,5.7-2.4,8.6c-0.8,2.9-1.3,5.8-1,8.8c0.1,1.2,0.4,2.4,0.9,3.5c0.2,0.4,0.4,0.8,0.7,1.1c1.2,1.4,1.9,1.4,3.1,0.1
			c1.3-1.4,2.2-3.1,3.1-4.8c2.8-5.6,4.4-11.6,5.5-17.6c0.5-2.4,0.9-4.9,1.4-7.3c0.1-0.2,0.1-0.5,0.2-0.7c0.1-0.5,0.4-0.7,0.9-0.7
			c0.6,0,0.7,0.4,0.8,0.8c0.2,1.3,0.2,2.6,0,3.9c-0.7,5.5-2.3,10.8-4.4,15.9c-1.1,2.9-2.4,5.6-3.7,8.4c-2.2,4.8-7.1,6.3-11.3,5.8
			c-2.7-0.3-5.3-3.1-5.6-5.3c-0.5-3.1-0.1-6.2,0.4-9.3c0.8-4.3,2-8.5,3.1-12.7c0.4-1.5,1-2.9,1.5-4.3c0.8-2.6,0.3-3.2-2.4-3
			c-2.7,0.2-5.5,0.1-8.2-0.4c-0.9-0.2-1.8-0.5-2.7-1c-1-0.6-1.7-1.5-1.8-2.8c-0.2-4.6,1.1-8.7,3.8-12.4c1.5-2,3.5-3.2,5.9-3.8
			c1.3-0.3,2.6-0.1,3.8,0.2c1.2,0.3,1.7,1.2,1.9,2.4c0.2,1.8,0.1,3.5-0.4,5.3c-0.5,1.6-1.1,3.2-1.9,4.6
			C70.8,117,69.8,119.2,68.3,121.4z M67.7,119.9c1.6-3.2,3.7-6.1,4.4-9.6c0.3-1.6,0.7-3.2,0.2-4.8c-0.2-0.6-0.2-1.5-0.8-1.5
			c-0.7-0.1-0.9,0.8-1.2,1.4c-0.5,1.4-1,2.8-1.4,4.2c-0.8,2.5-1.4,5.1-1.5,7.7C67.3,118.2,67.3,119,67.7,119.9z"/>
		<path class="st0" d="M99.1,126.9c1.1-1.9,2.1-3.8,3.4-5.5c1.2-1.6,2.6-3.1,4.2-4.3c2.1-1.6,4.4-2.3,7-1.8c0.8,0.1,1.6,0.2,2.4,0.4
			c3.3,0.8,5.7,3.4,6.1,6.9c0.3,2.3,0,4.6-0.2,6.9c-0.2,2.8-0.6,5.6-0.2,8.5c0.2,1.3,0.6,2.5,1.3,3.6c0.4,0.6,0.8,0.8,1.4,0.4
			c1.2-0.6,2.2-1.3,3.2-2.1c5.4-4.4,9.1-10,10.9-16.7c0.2-0.7,0.3-1.4,0.4-2.1c0-0.2,0.1-0.4,0.4-0.4c0.3,0,0.5,0.2,0.5,0.4
			c0,0.4,0,0.8-0.1,1.1c-0.7,5.4-3.1,10-6.2,14.4c-1.4,2-3.1,3.7-4.8,5.4c-2.4,2.4-5.3,3-8.5,2.7c-0.8-0.1-1.7-0.2-2.6-0.4
			c-2.1-0.6-3.4-1.9-4.1-3.9c-0.8-2.5-1-5.1-0.8-7.7c0.4-4.5,0.7-9.1,0.9-13.7c0.1-2.5-0.6-3-2.8-1.9c-1.1,0.5-2.1,1.3-3,2.2
			c-2.2,2.1-3.8,4.5-5.1,7.3c-1.4,3.1-2.3,6.4-3.1,9.7c-0.2,0.6,0.1,1.2,0.2,1.8c0.2,0.9,0.7,1.8,0.8,2.8c0.1,1.3-0.1,1.6-1.2,2.2
			c-1.1,0.6-2.3,0.9-3.6,1.1c-1.9,0.3-3.1-0.3-3.8-2.2c-0.5-1.3-1-2.6-1.2-4c-0.9-6.2-1.1-12.5-0.1-18.8c0.1-0.7,0.3-1.4,0.6-2.1
			c0.3-0.9,1-1.6,1.9-1.8c1.3-0.3,2.6-0.6,4-0.7c1.9-0.1,2.7,0.9,2.3,2.7c-0.3,1.8-0.6,3.6-0.7,5.4C99,124,99.1,125.5,99.1,126.9z"
			/>
		<path class="st0" d="M178.4,124.1c-0.1,1.4-0.5,2.6-1,3.9c-1.9,5-4.7,9.4-8.4,13.3c-2.8,3-6.2,3.6-10,3.2c-0.2,0-0.4-0.1-0.6-0.1
			c-4.2-0.6-5.6-2.4-6.6-6.3c-0.2-0.6-0.3-1.3-0.4-1.9c-0.5,0.1-0.6,0.4-0.7,0.7c-0.9,1.4-1.9,2.8-3,4.1c-1.8,2.2-6,3.2-8.6,2.1
			c-0.9-0.4-1.6-0.9-2.1-1.6c-1.3-1.7-2.2-3.5-2.3-5.6c-0.3-4.9,0.3-9.8,2.5-14.3c2.5-5.1,6.3-7.1,12.2-6.8c1.4,0.1,2.1,0.5,3.6,1.6
			c0.1-0.1,0.2-0.1,0.2-0.1c1.6-3.2,3.2-3.2,6.7-2.7c0.7,0.1,1.1,0.6,1.1,1.3c0.1,1.8,0.2,3.6,0.1,5.5c-0.5,5.5-1.1,11.1-1.1,16.6
			c0,1.5,0.2,3,0.8,4.3c0.9,2.1,2.6,2.6,4.5,1.3c2.5-1.8,4.4-4.1,6-6.7c1.8-2.9,3.2-6,4.5-9.2c0.4-1,1-1.9,1.4-2.8
			c0.1-0.4,0.5-0.5,0.8-0.4C178.5,123.4,178.4,123.7,178.4,124.1z M150.9,116.5c-0.4-0.2-0.8-0.5-1.3-0.7c-1.6-0.6-2.3-0.3-2.9,1.2
			c-0.5,1.1-0.8,2.2-1.2,3.4c-1.4,4.7-2.8,9.5-3.1,14.4c-0.1,2,0.1,3.9,1.1,5.7c0.5,1,0.9,1,1.8,0.3c2.1-1.7,3.7-3.8,5.1-6
			c0.7-1.1,1.1-2.4,1.1-3.7c0.3-3.9,0.5-7.8,1-11.6C152.6,118,152.1,117.2,150.9,116.5z"/>
		<path class="st0" d="M183.9,126.9c1.1-1.9,2.1-3.8,3.4-5.5c1.2-1.6,2.6-3.1,4.2-4.3c2.1-1.6,4.4-2.3,7-1.8
			c0.8,0.1,1.6,0.2,2.4,0.4c3.3,0.8,5.7,3.4,6.1,6.9c0.3,2.3,0,4.6-0.2,6.9c-0.2,2.8-0.6,5.6-0.2,8.5c0.2,1.3,0.6,2.5,1.3,3.6
			c0.4,0.6,0.8,0.8,1.4,0.4c1.1-0.6,2.2-1.3,3.2-2.1c5.4-4.4,9.1-10,10.9-16.7c0.2-0.7,0.3-1.4,0.4-2.1c0-0.2,0.1-0.4,0.4-0.4
			c0.3,0,0.5,0.2,0.5,0.4c0,0.4,0,0.8-0.1,1.1c-0.7,5.4-3.1,10-6.2,14.4c-1.4,2-3.1,3.7-4.8,5.4c-2.4,2.4-5.3,3-8.5,2.7
			c-0.9-0.1-1.7-0.2-2.6-0.4c-2.1-0.6-3.4-1.9-4.1-3.9c-0.9-2.5-1-5.1-0.8-7.7c0.4-4.5,0.7-9.1,0.9-13.7c0.1-2.5-0.6-3-2.8-1.9
			c-1.1,0.5-2.1,1.3-3,2.2c-2.2,2.1-3.8,4.5-5.1,7.3c-1.4,3.1-2.3,6.4-3.1,9.7c-0.2,0.6,0.1,1.2,0.2,1.8c0.2,0.9,0.7,1.8,0.8,2.8
			c0.1,1.3-0.1,1.6-1.2,2.2c-1.1,0.6-2.3,0.9-3.6,1.1c-1.9,0.3-3.1-0.3-3.9-2.2c-0.5-1.3-1-2.6-1.2-4c-0.9-6.2-1.1-12.5-0.1-18.8
			c0.1-0.7,0.3-1.4,0.6-2.1c0.4-0.9,1-1.6,1.9-1.8c1.3-0.3,2.6-0.6,4-0.7c1.9-0.1,2.6,0.9,2.3,2.7c-0.3,1.8-0.6,3.6-0.7,5.4
			C183.8,124,183.9,125.5,183.9,126.9z"/>
		<path class="st0" d="M265.4,122.3c0,0.6-0.1,1.2-0.2,1.9c-0.7,4-2.3,7.6-4.2,11.1c-1.6,3-3.5,5.8-5.5,8.6
			c-3.7,4.9-11,4.7-14.7,2.2c-2.9-2-4.9-4.6-6-7.8c-0.2-0.5-0.2-1.1-0.7-1.6c-0.8,1.5-1.5,3-2.6,4.2c-1.6,1.9-3.3,3.4-5.9,3.9
			c-3.5,0.7-7-1.1-8.5-4.4c-1.5-3.4-1.4-6.8-0.8-10.3c0.1-0.4,0.2-0.9,0.3-1.3c1.6-6.1,5.8-9.7,12.1-10.4c1.4-0.2,2.9-0.3,4.3-0.1
			c1.1,0.1,1.1,0.1,1.3-1c0.5-3.1,1.1-6.2,1.8-9.3c1.2-5.1,3-9.9,6.1-14.2c1.6-2.2,3.7-3.7,6.4-4.3c1-0.2,2-0.2,3-0.1
			c1.6,0.2,3.2,0.6,4.8,1.1c1.7,0.6,2.7,1.8,3.1,3.5c0.4,1.9,0.3,3.7-0.2,5.6c-0.7,2.9-2.1,5.5-3.5,8c-1.2,2.1-2.4,4.1-3.7,6.2
			c-1.2,2-2.8,3.7-4.2,5.4c-1.7,2-3.4,3.9-5.3,5.6c-0.4,0.4-0.6,0.8-0.6,1.4c0.1,5.1,0.5,10.2,1.9,15.1c0.4,1.5,1.2,2.9,2.2,4
			c1.6,1.8,2.3,1.6,4,0.7c1.2-0.7,2.2-1.5,3.1-2.6c2.4-2.9,4.6-5.9,6.1-9.4c0.9-2,1.8-4,2.7-6c0.5-1,0.7-2.1,1-3.2
			c0.2-0.8,0.5-1.6,1-2.4c0.1-0.3,0.3-0.5,0.6-0.6C265.1,121.7,265.4,121.8,265.4,122.3z M233,119.3c-0.3-0.1-0.6-0.1-0.7-0.1
			c-1,0-1.7,0.3-2.4,0.9c-1.5,1.4-2.7,3-3.5,4.9c-1.2,3-1.7,6.1-2,9.2c-0.2,1.9-0.5,3.8-0.1,5.7c0.2,0.9,0.6,1.7,1.2,2.4
			c0.4,0.4,0.7,0.5,1.2,0.2c0.7-0.6,1.4-1.1,2-1.8c2-2.1,3.3-4.7,4.6-7.3c0.3-0.6,0.2-1.2,0.2-1.8c-0.3-3.7-0.4-7.4,0.3-11
			C234,119.7,233.9,119.5,233,119.3z M242.5,123.1c0.5-0.6,0.9-0.9,1.2-1.3c1.1-1.3,2.1-2.6,3.3-3.8c3.4-3.8,6-8.2,7.9-12.9
			c0.7-1.8,1.3-3.7,1.5-5.7c0.3-2.5,0.1-4.9-1.4-7.1c-0.8,0.3-1.2,0.8-1.7,1.3c-4.2,3.9-6.6,8.8-8,14.2c-1.1,4.5-1.8,9-2.6,13.5
			C242.5,121.8,242.3,122.3,242.5,123.1z"/>
		<path class="st0" d="M303.4,124.1c-0.1,1.4-0.5,2.6-1,3.9c-1.9,5-4.7,9.4-8.4,13.3c-2.8,3-6.2,3.6-10,3.2c-0.2,0-0.4-0.1-0.6-0.1
			c-4.2-0.6-5.6-2.4-6.6-6.3c-0.2-0.6-0.3-1.3-0.4-1.9c-0.5,0.1-0.6,0.4-0.7,0.7c-0.9,1.4-1.9,2.8-3,4.1c-1.8,2.2-6,3.2-8.6,2.1
			c-0.9-0.4-1.6-0.9-2.1-1.6c-1.3-1.7-2.2-3.5-2.3-5.6c-0.3-4.9,0.3-9.8,2.5-14.3c2.5-5.1,6.3-7.1,12.2-6.8c1.4,0.1,2.1,0.5,3.6,1.6
			c0.1-0.1,0.2-0.1,0.2-0.1c1.6-3.2,3.2-3.2,6.7-2.7c0.7,0.1,1.1,0.6,1.1,1.3c0.1,1.8,0.2,3.6,0.1,5.5c-0.5,5.5-1.1,11.1-1.1,16.6
			c0,1.5,0.2,3,0.8,4.3c0.9,2.1,2.6,2.6,4.5,1.3c2.5-1.8,4.4-4.1,6-6.7c1.8-2.9,3.2-6,4.5-9.2c0.4-1,1-1.9,1.4-2.8
			c0.1-0.4,0.5-0.5,0.8-0.4C303.5,123.4,303.4,123.7,303.4,124.1z M275.9,116.5c-0.4-0.2-0.8-0.5-1.3-0.7c-1.6-0.6-2.3-0.3-2.9,1.2
			c-0.5,1.1-0.8,2.2-1.2,3.4c-1.4,4.7-2.8,9.5-3.1,14.4c-0.1,2,0.1,3.9,1.1,5.7c0.5,1,0.9,1,1.8,0.3c2.1-1.7,3.7-3.8,5-6
			c0.7-1.1,1-2.4,1.1-3.7c0.3-3.9,0.5-7.8,1-11.6C277.6,118,277.1,117.2,275.9,116.5z"/>
		<path class="st0" d="M324.8,127.1c-0.2,2.9,0.6,6.1,2.1,9.1c1.4,2.9,3.6,5,6.6,6.3c0.9,0.4,1.8,0.5,2.8,0.1
			c3.3-1.2,6.4-2.9,9.1-5.2c1.6-1.3,3.1-2.8,4.6-4.4c2.6-2.8,4.8-5.8,5.9-9.4c0.1-0.5,0.4-1,0.6-1.4c0.2-0.5,0.7-0.5,1.1-0.4
			c0.6,0.1,0.5,0.5,0.5,0.9c0,0.8-0.1,1.6-0.4,2.4c-0.8,1.6-1.3,3.3-1.8,5c-1.4,4.2-4,7.4-7.3,10.2c-2.8,2.4-6,4.1-9.7,4.7
			c-4.4,0.7-8.8,0.4-13-1.4c-3.4-1.4-5.9-3.9-7.5-7.2c-1.5-2.9-2.3-6-2.2-9.3c0.1-6.2,0.9-12.2,2.9-18.1c1.7-5,4.4-9.4,7.5-13.5
			c0.8-1.1,1.8-2,2.8-2.9c2.2-1.9,4.7-2.5,7.5-2.3c2,0.2,4,0.2,6,0.7c2.5,0.6,4.3,2,5.3,4.4c2,4.8,2,9.5,0.2,14.3
			c-0.5,1.2-0.9,1.5-1.9,1.4c-1-0.1-1.4-0.4-1.5-1.4c-0.1-1,0-1.9,0.1-2.9c0.2-2.3,0.4-4.7-0.1-7c-0.6-2.4-1.6-4.6-3.6-6.3
			c-1.2-1-1.4-1-2.6-0.1c-1.7,1.2-3,2.6-4.2,4.3c-5.3,7-8.3,14.9-9.2,23.7C324.9,123.1,324.8,124.9,324.8,127.1z"/>
		<path class="st0" d="M396,124.1c-0.1,1.4-0.5,2.6-1,3.9c-1.9,5-4.7,9.4-8.4,13.3c-2.8,3-6.2,3.6-10,3.2c-0.2,0-0.4-0.1-0.6-0.1
			c-4.2-0.6-5.6-2.4-6.6-6.3c-0.2-0.6-0.3-1.3-0.4-1.9c-0.5,0.1-0.6,0.4-0.7,0.7c-0.9,1.4-1.9,2.8-3,4.1c-1.8,2.2-6,3.2-8.6,2.1
			c-0.9-0.4-1.6-0.9-2.1-1.6c-1.3-1.7-2.2-3.5-2.3-5.6c-0.3-4.9,0.3-9.8,2.5-14.3c2.5-5.1,6.3-7.1,12.2-6.8c1.4,0.1,2.1,0.5,3.6,1.6
			c0.1-0.1,0.2-0.1,0.2-0.1c1.6-3.2,3.2-3.2,6.7-2.7c0.7,0.1,1.1,0.6,1.1,1.3c0.1,1.8,0.2,3.6,0.1,5.5c-0.5,5.5-1.1,11.1-1.1,16.6
			c0,1.5,0.2,3,0.8,4.3c0.9,2.1,2.6,2.6,4.5,1.3c2.5-1.8,4.4-4.1,6-6.7c1.8-2.9,3.2-6,4.5-9.2c0.4-1,1-1.9,1.4-2.8
			c0.1-0.4,0.5-0.5,0.8-0.4C396.2,123.4,396,123.7,396,124.1z M368.6,116.5c-0.4-0.2-0.8-0.5-1.3-0.7c-1.6-0.6-2.3-0.3-2.9,1.2
			c-0.5,1.1-0.8,2.2-1.2,3.4c-1.4,4.7-2.8,9.5-3.1,14.4c-0.1,2,0.1,3.9,1.1,5.7c0.5,1,0.9,1,1.8,0.3c2.1-1.7,3.7-3.8,5-6
			c0.7-1.1,1-2.4,1.1-3.7c0.3-3.9,0.5-7.8,1-11.6C370.3,118,369.8,117.2,368.6,116.5z"/>
		<path class="st0" d="M421.6,124c-0.4,1.4-0.7,2.8-1.2,4.1c-1.6,3.7-3.6,7.1-5.8,10.4c-1.6,2.3-3.7,3.9-6.5,4.3
			c-2.2,0.4-4.4,0.7-6.6,0.3c-2.4-0.4-4.1-1.7-5.4-3.7c-1.4-2.3-2.1-4.8-2.6-7.4c-1.4-7.5-1.8-15.1-1.8-22.6c0-3.5,0.1-6.9,0.9-10.3
			c0.3-1.5,0.8-2.9,1.4-4.2c2.3-4.9,6.4-7.1,11.7-6.1c0.3,0.1,0.7,0.1,1,0.2c2.9,0.6,4,1.7,4.5,4.6c0.2,0.9,0.2,1.9,0.3,2.9
			c-0.6,6-1.8,11.9-4.5,17.4c-1.7,3.4-3.5,6.8-5.4,10.2c-0.3,0.5-0.5,1-0.4,1.6c0.4,2.9,0.8,5.9,1.7,8.8c0.7,2.2,1.7,4.2,3.3,5.8
			c0.9,0.9,1,0.9,2.1,0.3c2.7-1.6,4.7-3.8,6.5-6.3c2.2-3.1,4.2-6.4,5.5-10.1c0.1-0.2,0.1-0.4,0.2-0.5c0.2-0.4,0.5-0.5,0.8-0.4
			C421.8,123.4,421.7,123.7,421.6,124z M401,122.3c0.8-0.9,1.1-1.7,1.5-2.4c3.6-6.2,5.9-12.9,6.4-20.1c0.2-2.7,0-5.3-1.3-7.7
			c-0.8-1.4-1-1.4-2.1-0.2c-3,3.6-4.5,7.7-4.8,12.2C400.3,110.1,400.5,116.1,401,122.3z"/>
		<path class="st0" d="M438.3,122.3c0,1.4-0.3,2.9-0.7,4.2c-0.8,2.8-1.7,5.6-3,8.2c-0.7,1.4-1.5,2.6-2.4,3.7c-1.8,2.2-4.2,3.4-7,3.8
			c-1.4,0.2-2.8,0.4-4.1,0.1c-2.2-0.5-3.8-1.7-4.4-4c-0.4-1.4-0.7-2.7-0.8-4.1c-0.2-4.8,0.1-9.5,0.8-14.2c0.3-1.9,1.1-3.7,2.2-5.3
			c0.5-0.8,1.3-1.2,2.3-1.3c0.7,0,1.4-0.1,2.2,0c1.3,0,1.6,0.3,1.8,1.6c0.3,1.7,0.3,3.4,0.1,5.2c-0.3,3.1-0.5,6.2-0.6,9.3
			c-0.1,2.6-0.1,5.2,0.7,7.7c0.2,0.8,0.5,1.6,1.1,2.2c1.7-1.2,3.1-2.6,4.3-4.2c2.7-3.8,4.7-8,6-12.5c0.1-0.3,0.1-0.6,0.2-0.8
			c0.2-0.4,0.6-0.5,1-0.4C438.4,121.7,438.3,122.1,438.3,122.3z M420.3,104.5c-0.8-1.5,0.5-4.2,2.2-4.7c1-0.3,2.1-0.5,3.3-0.4
			c1,0.1,1.4,0.3,1.5,1.4c0.1,1.2,0.2,2.5-0.2,3.7c-0.3,0.9-0.3,1.9,0.5,2.6c-1.6,1.3-4.7,0.5-5.8-0.6
			C421.2,105.9,420.7,105.2,420.3,104.5z"/>
		<path class="st0" d="M444.8,123.3c4.2,4.2,7,9.1,9.2,14.6c1.8-1.1,3.2-2.4,4.5-3.8c2.1-2.4,3.8-5.1,4.7-8.2c0.1-0.5,0.4-1,0.5-1.5
			c0.1-0.3,0.4-0.5,0.8-0.4c0.4,0.1,0.4,0.4,0.4,0.8c-0.3,3.1-1.7,5.8-3.4,8.3c-1.6,2.3-3.5,4.4-5.8,6c-1,0.7-1,0.7-0.6,1.9
			c1,3.6,1.3,7.2,0.7,10.8c-0.3,1.9-0.9,3.7-2.3,5.2c-1.5,1.6-3.5,2.2-5.5,2.5c-2.1,0.4-4.3,0.4-6.4-0.2c-2.6-0.8-4.1-2.6-4.2-5.4
			c0-3.1,1.2-5.7,3.6-7.7c1.5-1.3,3.4-2.2,5.1-3.1c1.1-0.6,1.5-1.2,1.3-2.5c-0.3-2.8-1.3-5.4-2.8-7.8c-2.3-3.7-5.2-7-7.9-10.5
			c-1.2-1.5-2.3-3.1-2.8-5c-0.9-3.1,0.1-5.9,2.8-7.6c2.9-1.7,5.9-2.4,9.2-1.5c0.9,0.2,1.9,0.5,2.7,0.8c2.4,1,3.5,3.1,2.9,5.6
			c-0.6,2.7-2.2,4.9-4.3,6.6C446.5,121.9,445.7,122.6,444.8,123.3z M447.4,144.1c-2,1-3.6,2-5.1,3.4c-0.9,0.8-1.5,1.9-1.8,3
			c-0.8,2.5,0.3,5.2,2.5,6.6c0.6,0.4,1,0.3,1.4-0.2c0.1-0.1,0.2-0.3,0.4-0.5C447.1,152.6,447.7,148.6,447.4,144.1z M444,122.3
			c1.6-1.2,3-2.5,4.2-3.9c0.8-0.9,1.3-2,1.6-3.2c0.5-1.9,0-3.5-1.5-4.8c-0.6-0.5-1.1-0.6-1.8-0.2c-1.5,0.9-3,1.9-3.9,3.5
			c-1.1,1.9-1.8,3.9-0.6,6C442.5,120.6,443.2,121.5,444,122.3z"/>
		<path class="st0" d="M474.9,108.6c0.5,0.3,1.1,0.1,1.7,0.1c1.5-0.1,3-0.2,4.4-0.4c1.2-0.1,2.3,0.1,3.4,0.2
			c0.8,0.1,1.3,0.8,1.8,1.5c-1.1,0.5-2.1,0.7-3.2,0.7c-2.5,0-5,0.1-7.5,0.3c-0.7,0.1-1.1,0.2-1.2,1c-0.9,5.9-1.9,11.8-1.5,17.9
			c0.2,3.7,1.2,7.1,2.9,10.3c1.2,2.2,3,3.2,5.5,3.5c1.1,0.1,2.2-0.1,3.1-0.8c2.8-1.7,4.9-4.1,6.8-6.8c1.9-2.7,3.3-5.6,4.5-8.7
			c0.6-1.4,0.8-3,1-4.5c0-0.3,0.1-0.7,0.2-1c0.1-0.3,0.3-0.3,0.6-0.3c0.2,0,0.3,0.2,0.3,0.4c0,1.6-0.1,3.2-0.4,4.7
			c-1.2,5.9-4.4,10.8-8.7,14.9c-2.8,2.6-6.4,3.9-10.2,4.2c-1.9,0.1-3.8,0.2-5.7-0.2c-3.1-0.8-5.4-2.5-6.5-5.7
			c-1.1-3.3-1.8-6.6-1.9-10.1c-0.1-4.8,0.4-9.6,1-14.3c0.1-0.9,0.3-1.9,0.4-2.8c0.1-0.9,0-1-0.8-0.9c-3,0.4-6,0.3-9,0.7
			c-0.4,0-0.7,0-1-0.2c-0.3-0.2-0.6-0.3-0.6-0.7c0-0.5,0.4-0.6,0.8-0.7c1.2-0.4,2.4-0.3,3.6-0.5c2.1-0.3,4.2-0.4,6.3-0.6
			c1.3-0.1,1.3-0.1,1.4-1.3c0.3-3,1.3-5.9,2.2-8.8c0.7-1.9,2-2.8,4-2.9c1.1,0,2.3-0.1,3.4,0.2c1.3,0.3,1.8,1,1.5,2.3
			c-0.2,0.8-0.5,1.6-0.7,2.3C475.8,103.8,475,106.2,474.9,108.6z"/>
		<path class="st0" d="M505.4,143.6c-2-0.1-4.3-0.3-6.5-1.2c-3.5-1.3-5.5-3.9-6-7.5c-0.8-5.4,0.2-10.6,2.7-15.5
			c1.6-3.2,4.2-4.6,7.8-4.3c1.7,0.1,3.4,0.3,5.1,0.8c0.7,0.2,1.5,0.4,2.1,0.9c1.4,0.9,1.8,2.2,1.1,3.7c-0.8,1.7-2,3.1-3.5,4.4
			c-1.9,1.6-3.9,3.2-5.9,4.6c-0.6,0.4-0.9,0.9-1,1.6c-0.2,2.1,0,4.2,0.6,6.3c0.4,1.2,1,2.3,1.9,3.1c0.8,0.7,1.6,0.9,2.6,0.7
			c2.2-0.6,4.3-1.6,6.3-2.8c3.4-2.1,6.7-4.3,9.3-7.4c1.7-2,3.2-4.2,4.4-6.6c0.2-0.4,0.4-0.8,0.7-1.1c0.2-0.2,0.4-0.2,0.7-0.1
			c0.3,0.1,0.3,0.4,0.2,0.6c-1.5,3.9-3.1,7.9-6.1,11c-2.4,2.5-5.1,4.7-8,6.5C511.3,142.9,508.7,143.6,505.4,143.6z M502,127.4
			c2.1-1.5,4.1-3,5.8-4.9c0.5-0.6,0.8-1.2,1.1-1.9c0.3-0.9,0.2-1.7-0.3-2.5c-0.3-0.5-0.7-0.6-1.2-0.3c-1.1,0.6-2,1.5-2.7,2.5
			C503.3,122.6,502.5,124.9,502,127.4z"/>
		<path class="st0" d="M531.5,126.9c1.1-1.9,2.1-3.8,3.4-5.5c1.2-1.6,2.6-3.1,4.2-4.3c2.1-1.6,4.4-2.3,7-1.8
			c0.8,0.1,1.6,0.2,2.4,0.4c3.3,0.8,5.7,3.4,6.1,6.9c0.3,2.3,0,4.6-0.2,6.9c-0.2,2.8-0.6,5.6-0.2,8.5c0.2,1.3,0.6,2.5,1.3,3.6
			c0.4,0.6,0.8,0.8,1.4,0.4c1.2-0.6,2.2-1.3,3.2-2.1c5.4-4.4,9.1-10,10.9-16.7c0.2-0.7,0.3-1.4,0.4-2.1c0-0.2,0.1-0.4,0.3-0.4
			c0.3,0,0.5,0.2,0.5,0.4c0,0.4,0,0.8-0.1,1.1c-0.7,5.4-3.1,10-6.2,14.4c-1.4,2-3.1,3.7-4.8,5.4c-2.4,2.4-5.3,3-8.5,2.7
			c-0.8-0.1-1.7-0.2-2.5-0.4c-2.1-0.6-3.4-1.9-4.1-3.9c-0.9-2.5-1-5.1-0.8-7.7c0.4-4.5,0.7-9.1,0.9-13.7c0.1-2.5-0.6-3-2.8-1.9
			c-1.1,0.5-2.1,1.3-3,2.2c-2.2,2.1-3.8,4.5-5.1,7.3c-1.4,3.1-2.3,6.4-3.1,9.7c-0.2,0.6,0.1,1.2,0.2,1.8c0.2,0.9,0.7,1.8,0.8,2.8
			c0.1,1.3-0.1,1.6-1.2,2.2c-1.1,0.6-2.3,0.9-3.6,1.1c-2,0.3-3.1-0.3-3.8-2.2c-0.5-1.3-1-2.6-1.2-4c-0.9-6.2-1.1-12.5-0.1-18.8
			c0.1-0.7,0.3-1.4,0.6-2.1c0.3-0.9,1-1.6,1.9-1.8c1.3-0.3,2.6-0.6,4-0.7c1.9-0.1,2.7,0.9,2.3,2.7c-0.3,1.8-0.6,3.6-0.7,5.4
			C531.5,124,531.5,125.5,531.5,126.9z"/>
		<path class="st0" d="M579.6,143.6c-2-0.1-4.3-0.3-6.5-1.2c-3.5-1.3-5.5-3.9-6-7.5c-0.8-5.4,0.2-10.6,2.7-15.5
			c1.6-3.2,4.2-4.6,7.8-4.3c1.7,0.1,3.4,0.3,5.1,0.8c0.7,0.2,1.5,0.4,2.1,0.9c1.4,0.9,1.8,2.2,1.1,3.7c-0.8,1.7-2,3.1-3.5,4.4
			c-1.9,1.6-3.8,3.2-5.9,4.6c-0.6,0.4-0.9,0.9-1,1.6c-0.2,2.1,0,4.2,0.6,6.3c0.4,1.2,1,2.3,1.9,3.1c0.8,0.7,1.6,0.9,2.6,0.7
			c2.2-0.6,4.3-1.6,6.3-2.8c3.4-2.1,6.7-4.3,9.3-7.4c1.7-2,3.2-4.2,4.4-6.6c0.2-0.4,0.4-0.8,0.7-1.1c0.2-0.2,0.4-0.2,0.7-0.1
			c0.3,0.1,0.3,0.4,0.2,0.6c-1.5,3.9-3.1,7.9-6.1,11c-2.4,2.5-5.1,4.7-8,6.5C585.5,142.9,582.9,143.6,579.6,143.6z M576.2,127.4
			c2.1-1.5,4.1-3,5.8-4.9c0.5-0.6,0.8-1.2,1.1-1.9c0.3-0.9,0.2-1.7-0.3-2.5c-0.3-0.5-0.7-0.6-1.2-0.3c-1.1,0.6-2,1.5-2.7,2.5
			C577.5,122.6,576.7,124.9,576.2,127.4z"/>
	</g>
	<g>
		<g>
			<path class="st0" d="M26.2,123.1l-0.1-0.1l-0.2,0c-1.7,0.1-3,0.2-4.1,0.3s-2,0-2.9,0c-0.8,0-1.5,0-2.2-0.1c-0.4,0-0.8,0-1.3,0
				c0.4-1.8,0.8-3.5,1.2-5.2c0.5-2,1-3.9,1.4-5.6s0.8-3.4,1.1-4.9s0.6-2.8,0.8-3.9L20,103l-0.5-0.3c-2.2-1.2-4.7-1.2-7.3,0l-0.4,0.2
				l0,0.5c-0.1,2.7-0.5,5.8-1.2,9.2c-0.7,3.3-1.5,6.9-2.4,10.6c-0.1,0-0.1,0-0.2,0c-0.3,0-0.5,0-0.8,0H6.8l-0.2,0.2
				c-1,0.9-1.2,2.1-0.5,3.1l0.2,0.3h1.1c-0.7,3.6-1.4,7.2-1.9,10.8c-0.6,4-0.8,8-0.7,11.8l0,0.5l0.5,0.2c0.4,0.1,0.8,0.2,1.4,0.3
				c0.6,0.1,1.2,0.1,1.8,0.1c0.1,0,0.2,0,0.3,0c0.5,0,1,0,1.5-0.1c0.6-0.1,1.1-0.2,1.5-0.4l0.6-0.2l-0.1-0.6c-0.2-1.4-0.3-3-0.2-4.7
				c0.1-1.7,0.2-3.6,0.4-5.5c0.2-1.9,0.5-3.9,0.9-6c0.3-1.8,0.7-3.6,1-5.5c1.2,0.2,2.5,0.4,3.9,0.6c1.7,0.2,3.9,0.3,6.6,0.3l0.2,0
				c0.9-0.2,1.6-0.6,2.1-1.1s0.8-1.1,0.8-1.7c0.1-0.6-0.1-1.2-0.4-1.7C27.3,123.6,26.8,123.2,26.2,123.1z"/>
		</g>
		<g>
			<path class="st0" d="M50.7,95.5c-0.4-1-1-1.3-1.5-1.5L49,94l-0.2,0c-2,0.4-4.2,0.7-6.6,0.7c-2.4,0.1-5,0.1-7.5,0
				c-2.6-0.1-5.2-0.2-7.8-0.2s-5.2-0.1-7.7,0.1c-2.5,0.1-4.8,0.4-7,0.9c-2.2,0.5-4.2,1.2-5.9,2.3c-1.7,1.1-3.2,2.5-4.2,4.3
				c-1.1,1.8-1.7,4.1-1.9,6.8L0,109.8l4.1-0.1l0-0.7c0.1-2.2,0.3-4,0.7-5.3c0.3-1.2,0.9-2.1,1.8-2.7c0.9-0.7,2.3-1.1,4.1-1.2
				c1.9-0.2,4.5-0.2,7.8-0.1c3.3,0.1,7.4,0.4,12.2,0.7c4.8,0.3,10.7,0.6,17.7,0.9h0.1l0.1,0c0.8-0.2,1.4-0.7,1.8-1.5
				c0.3-0.7,0.5-1.4,0.6-2.1C51.1,96.9,51,96.2,50.7,95.5z"/>
		</g>
	</g>
</g>
</svg>
