<?xml version="1.0" encoding="utf-8"?>
<!-- Generator: Adobe Illustrator 24.0.1, SVG Export Plug-In . SVG Version: 6.00 Build 0)  -->
<svg version="1.1" id="Layer_1" xmlns="http://www.w3.org/2000/svg" xmlns:xlink="http://www.w3.org/1999/xlink" x="0px" y="0px"
	 viewBox="0 0 602.28 183.75" style="enable-background:new 0 0 602.28 183.75;" xml:space="preserve">
<style type="text/css">
	.st0{fill:#779370;}
	.st1{fill:url(#SVGID_1_);}
</style>
<g>
	<path class="st0" d="M203.43,183.43h-1.78v-15.14h1.78l7.74,12.11h0.08v-12.11h1.76v15.14h-1.76l-7.77-12.11h-0.06V183.43z"/>
	<path class="st0" d="M222.02,168.29v9.88c0,1.2,0.35,2.16,1.06,2.88c0.71,0.72,1.66,1.08,2.86,1.08c1.19,0,2.14-0.36,2.85-1.08
		c0.71-0.72,1.07-1.68,1.07-2.88v-9.88h1.76v9.88c0,1.66-0.52,3.01-1.57,4.04s-2.42,1.54-4.12,1.54c-1.11,0-2.1-0.23-2.97-0.7
		c-0.86-0.47-1.53-1.13-2-1.98c-0.47-0.86-0.71-1.83-0.71-2.93v-9.84H222.02z"/>
	<path class="st0" d="M243.66,183.43h-1.76v-13.55h-4.65v-1.59h11.05v1.59h-4.64V183.43z"/>
	<path class="st0" d="M259.48,168.29c0.8,0,1.52,0.12,2.15,0.37c0.63,0.25,1.13,0.58,1.51,1c0.37,0.42,0.66,0.89,0.85,1.41
		c0.19,0.52,0.29,1.09,0.29,1.69c0,1.14-0.27,2.05-0.82,2.74c-0.54,0.69-1.21,1.19-2.01,1.48l3.1,6.45h-2.04l-2.81-6.08h-3.82v6.08
		h-1.78v-15.14H259.48z M255.88,175.76h3.31c1.07,0,1.89-0.25,2.44-0.74s0.83-1.2,0.83-2.12c0-0.98-0.28-1.73-0.85-2.24
		c-0.56-0.52-1.34-0.77-2.33-0.77h-3.39V175.76z"/>
	<path class="st0" d="M272.96,183.43h-1.78v-15.14h1.78V183.43z"/>
	<path class="st0" d="M281.54,174.8v2.22c0,1.71,0.37,2.99,1.11,3.84c0.74,0.85,1.76,1.27,3.07,1.27c1.17,0,2.08-0.31,2.73-0.92
		s0.98-1.37,0.98-2.26h1.74c0,0.54-0.11,1.08-0.33,1.62c-0.22,0.54-0.54,1.06-0.97,1.55c-0.42,0.49-1,0.88-1.74,1.18
		c-0.73,0.29-1.57,0.44-2.51,0.44c-1.81,0-3.23-0.58-4.28-1.73c-1.05-1.15-1.57-2.81-1.57-4.97v-2.29c0-2.14,0.53-3.8,1.59-5
		c1.06-1.19,2.49-1.79,4.28-1.79c0.9,0,1.7,0.15,2.43,0.44c0.72,0.3,1.3,0.69,1.74,1.19c0.44,0.5,0.77,1.04,1.01,1.62
		c0.23,0.59,0.35,1.19,0.35,1.81h-1.74c0-0.9-0.34-1.71-1.02-2.4c-0.68-0.7-1.6-1.05-2.76-1.05c-1.24,0-2.24,0.45-2.99,1.35
		C281.91,171.83,281.54,173.12,281.54,174.8z"/>
	<path class="st0" d="M299.66,183.43h-1.78v-15.14h1.78V183.43z"/>
	<path class="st0" d="M306.48,177.07v-2.27c0-2.12,0.54-3.79,1.63-5s2.54-1.82,4.37-1.82c1.82,0,3.28,0.6,4.36,1.81
		c1.08,1.21,1.63,2.88,1.63,5.01v2.27c0,2.12-0.55,3.76-1.64,4.93c-1.09,1.16-2.55,1.75-4.39,1.75c-1.84,0-3.29-0.58-4.36-1.75
		C307.01,180.84,306.48,179.19,306.48,177.07z M308.24,174.8v2.27c0,0.84,0.11,1.59,0.33,2.25c0.22,0.66,0.52,1.19,0.9,1.6
		c0.38,0.4,0.82,0.71,1.32,0.91c0.5,0.2,1.05,0.3,1.67,0.3c0.6,0,1.16-0.1,1.67-0.3s0.96-0.51,1.35-0.91c0.39-0.4,0.69-0.94,0.9-1.6
		c0.21-0.66,0.32-1.41,0.32-2.25v-2.27c0-1.67-0.39-2.96-1.18-3.86c-0.79-0.9-1.81-1.36-3.06-1.36c-1.24,0-2.26,0.45-3.04,1.35
		C308.64,171.83,308.24,173.12,308.24,174.8z"/>
	<path class="st0" d="M327.07,183.43h-1.78v-15.14h1.78l7.74,12.11h0.08v-12.11h1.76v15.14h-1.76l-7.77-12.11h-0.06V183.43z"/>
	<path class="st0" d="M345.85,183.43h-1.78v-15.14h1.78V183.43z"/>
	<path class="st0" d="M352.1,179.38h1.78c0.08,0.81,0.46,1.47,1.12,1.99c0.67,0.52,1.57,0.77,2.71,0.77c1.07,0,1.94-0.25,2.59-0.74
		s0.98-1.17,0.98-2.02c0-0.63-0.2-1.15-0.61-1.54c-0.4-0.4-1.04-0.71-1.9-0.93l-2.71-0.72c-1.02-0.26-1.86-0.72-2.51-1.35
		c-0.66-0.64-0.98-1.5-0.98-2.57c0-0.9,0.25-1.69,0.75-2.36c0.5-0.67,1.13-1.17,1.9-1.48c0.77-0.32,1.61-0.47,2.51-0.47
		c0.65,0,1.27,0.08,1.86,0.25c0.59,0.17,1.13,0.42,1.64,0.75c0.5,0.33,0.91,0.78,1.21,1.35c0.3,0.57,0.47,1.21,0.49,1.93h-1.78
		c-0.08-0.8-0.42-1.44-1-1.93c-0.59-0.49-1.4-0.74-2.45-0.74c-0.99,0-1.79,0.23-2.4,0.68c-0.62,0.45-0.93,1.09-0.93,1.91
		c0,1.17,0.72,1.94,2.15,2.31l2.65,0.71c1.27,0.35,2.24,0.85,2.91,1.48c0.67,0.63,1.01,1.51,1.01,2.62c0,1.44-0.53,2.55-1.58,3.33
		c-1.05,0.78-2.39,1.17-4.03,1.17c-0.93,0-1.76-0.13-2.48-0.4c-0.72-0.27-1.28-0.62-1.68-1.06c-0.4-0.44-0.7-0.9-0.9-1.39
		C352.22,180.41,352.11,179.9,352.1,179.38z"/>
	<path class="st0" d="M374.49,183.43h-1.76v-13.55h-4.65v-1.59h11.05v1.59h-4.64V183.43z"/>
	<path class="st0" d="M385.2,183.43h-1.82l5.45-15.14h1.72l5.43,15.14h-1.92l-1.57-4.67h-5.73L385.2,183.43z M389.68,170.47h-0.06
		l-2.33,6.86h4.73L389.68,170.47z"/>
</g>
<linearGradient id="SVGID_1_" gradientUnits="userSpaceOnUse" x1="268.3531" y1="-1.629" x2="330.5898" y2="60.6077">
	<stop  offset="0" style="stop-color:#F6955C"/>
	<stop  offset="1" style="stop-color:#E56727"/>
</linearGradient>
<path class="st1" d="M318.71,0c-7.82,0-15.26,3.45-20.37,9.24C293.24,3.38,285.91,0,277.95,0c-14.97,0-27.16,12.18-27.16,27.16
	c0,5.73,1.51,11.34,4.16,15.82c4.08,6.91,9.44,12.86,20.38,16.31c1.47,6.34,7.48,7.62,12.32,7.62c1.85,0,3.65-0.27,5.2-0.82
	c14.28-5.05,18.09-18.61,18.09-18.61s-0.02,0-0.05-0.01c-1.69,0.74-3.92,1.16-6.41,1.16c-1.04,0-2.12-0.07-3.23-0.23
	c-4.45-0.62-6.73-1.75-9.42-2.49c-2.32-0.63-4.72-1.06-6.65-1.06c-0.62,0-1.19,0.05-1.7,0.14c-3.82,0.73-7.05,3.49-7.82,8
	c3.91,3.29,11.81,3.86,16.86,3.86c2.7,0,4.58-0.17,4.58-0.17c0.02-0.01,0.03-0.01,0.03-0.01c0.01,0-0.04,0.03-0.13,0.08
	c0.06-0.04,0.1-0.07,0.1-0.07c-14.54,6.56-32.48-4.63-38.42-16.88c-1.81-3.74-1.93-8.43-1.93-12.57c0-11.23,9.96-22.05,21.19-22.05
	c7.21,0,13.74,3.72,17.46,9.94l2.92,4.88l2.92-4.88c3.72-6.22,10.25-9.94,17.46-9.94c11.23,0,20.36,10.74,20.36,21.97
	c0,27.53-33.5,47.68-41.8,50.4c-0.77,0.33-1.28,0.91-1.08,2.05c0.35,1.01,0.82,1.17,1.33,1.27c0.4,0.06,0.91,0.13,1.56-0.06
	c9.82-3.22,46.79-21.76,46.79-53.66C345.86,12.18,333.68,0,318.71,0z"/>
<g>
	<g>
		<path class="st0" d="M47.3,143.56c-1.95-0.13-4.28-0.33-6.51-1.16c-3.48-1.3-5.46-3.85-5.96-7.46
			c-0.75-5.43,0.23-10.58,2.72-15.48c1.63-3.21,4.25-4.57,7.76-4.28c1.72,0.14,3.43,0.35,5.1,0.8c0.74,0.2,1.47,0.43,2.12,0.86
			c1.39,0.9,1.8,2.24,1.08,3.73c-0.82,1.71-2.02,3.14-3.47,4.36c-1.91,1.6-3.85,3.18-5.91,4.58c-0.62,0.43-0.89,0.9-0.95,1.63
			c-0.16,2.13-0.03,4.22,0.61,6.26c0.38,1.21,1.01,2.27,1.94,3.15c0.76,0.71,1.59,0.95,2.63,0.67c2.24-0.61,4.33-1.55,6.3-2.75
			c3.41-2.07,6.68-4.34,9.26-7.45c1.69-2.04,3.18-4.21,4.37-6.57c0.19-0.38,0.42-0.75,0.68-1.09c0.16-0.21,0.44-0.18,0.67-0.08
			c0.27,0.12,0.27,0.36,0.17,0.61c-1.53,3.94-3.08,7.86-6.14,10.96c-2.43,2.47-5.08,4.66-8.04,6.49
			C53.27,142.87,50.59,143.57,47.3,143.56z M43.94,127.44c2.09-1.46,4.12-2.97,5.75-4.93c0.46-0.55,0.84-1.17,1.08-1.86
			c0.3-0.87,0.21-1.69-0.31-2.46c-0.32-0.48-0.68-0.57-1.21-0.28c-1.12,0.62-2.01,1.47-2.68,2.54
			C45.25,122.59,44.39,124.91,43.94,127.44z"/>
		<path class="st0" d="M68.35,121.41c1.66,0.13,3.04,0.27,4.42,0.34c0.96,0.05,1.91,0.22,2.84,0.43c2,0.44,3.41,1.61,4.3,3.48
			c0.94,1.98,1.29,3.98,0.65,6.13c-0.85,2.85-1.68,5.7-2.42,8.58c-0.75,2.88-1.26,5.82-1,8.82c0.1,1.2,0.37,2.37,0.92,3.46
			c0.19,0.38,0.42,0.76,0.69,1.09c1.18,1.44,1.86,1.45,3.07,0.08c1.28-1.45,2.21-3.12,3.07-4.84c2.79-5.59,4.38-11.55,5.54-17.64
			c0.47-2.45,0.95-4.89,1.42-7.34c0.05-0.23,0.12-0.46,0.17-0.7c0.1-0.49,0.37-0.72,0.9-0.71c0.59,0.02,0.7,0.4,0.78,0.85
			c0.23,1.29,0.2,2.58,0.03,3.87c-0.72,5.5-2.32,10.77-4.36,15.9c-1.13,2.85-2.39,5.65-3.65,8.45c-2.16,4.8-7.09,6.27-11.34,5.79
			c-2.67-0.3-5.28-3.06-5.62-5.29c-0.48-3.15-0.09-6.22,0.45-9.29c0.75-4.3,2.03-8.48,3.07-12.71c0.37-1.48,1.04-2.88,1.48-4.35
			c0.79-2.63,0.32-3.19-2.44-3.03c-2.74,0.16-5.46,0.11-8.16-0.43c-0.94-0.19-1.85-0.52-2.68-1.01c-1.04-0.63-1.72-1.51-1.77-2.79
			c-0.15-4.57,1.08-8.73,3.82-12.4c1.48-1.99,3.5-3.22,5.95-3.75c1.32-0.28,2.59-0.06,3.84,0.21c1.23,0.27,1.74,1.24,1.91,2.43
			c0.25,1.79,0.12,3.54-0.38,5.27c-0.46,1.62-1.1,3.17-1.91,4.64C70.81,117.02,69.85,119.21,68.35,121.41z M67.73,119.91
			c1.64-3.15,3.65-6.11,4.42-9.61c0.35-1.59,0.66-3.2,0.18-4.83c-0.17-0.58-0.2-1.48-0.83-1.53c-0.71-0.05-0.95,0.84-1.18,1.45
			c-0.52,1.39-1.01,2.79-1.43,4.21c-0.76,2.52-1.38,5.08-1.5,7.73C67.35,118.18,67.33,119.03,67.73,119.91z"/>
		<path class="st0" d="M99.09,126.91c1.1-1.92,2.13-3.8,3.43-5.52c1.22-1.62,2.59-3.1,4.18-4.35c2.06-1.63,4.38-2.31,7.01-1.85
			c0.8,0.14,1.61,0.18,2.41,0.37c3.34,0.83,5.66,3.44,6.07,6.87c0.27,2.31-0.01,4.6-0.16,6.9c-0.18,2.82-0.64,5.63-0.18,8.47
			c0.21,1.29,0.58,2.52,1.3,3.63c0.36,0.56,0.75,0.75,1.42,0.39c1.15-0.61,2.25-1.31,3.24-2.13c5.38-4.42,9.09-9.96,10.93-16.7
			c0.19-0.69,0.28-1.41,0.41-2.12c0.04-0.2,0.11-0.37,0.35-0.37c0.29-0.01,0.46,0.15,0.46,0.42c0,0.38-0.02,0.77-0.07,1.14
			c-0.71,5.38-3.14,10.02-6.18,14.4c-1.37,1.98-3.07,3.68-4.76,5.38c-2.37,2.37-5.28,2.98-8.47,2.68c-0.85-0.08-1.71-0.21-2.55-0.43
			c-2.08-0.56-3.43-1.86-4.11-3.86c-0.85-2.49-1.01-5.08-0.78-7.68c0.4-4.54,0.72-9.09,0.9-13.65c0.1-2.5-0.57-2.97-2.82-1.91
			c-1.14,0.54-2.13,1.29-3.03,2.17c-2.16,2.1-3.83,4.54-5.07,7.28c-1.41,3.12-2.3,6.4-3.11,9.71c-0.16,0.65,0.06,1.23,0.22,1.83
			c0.24,0.93,0.69,1.79,0.75,2.77c0.08,1.27-0.09,1.62-1.18,2.19c-1.12,0.58-2.33,0.91-3.56,1.1c-1.95,0.31-3.07-0.34-3.85-2.21
			c-0.54-1.29-0.96-2.63-1.16-4c-0.91-6.25-1.12-12.52-0.08-18.78c0.12-0.7,0.32-1.41,0.58-2.07c0.35-0.89,0.98-1.55,1.93-1.8
			c1.3-0.35,2.61-0.63,3.96-0.69c1.86-0.08,2.65,0.87,2.31,2.69c-0.34,1.79-0.62,3.6-0.7,5.42
			C99.03,124.04,99.09,125.47,99.09,126.91z"/>
		<path class="st0" d="M178.35,124.07c-0.07,1.37-0.52,2.63-0.99,3.88c-1.89,5-4.73,9.38-8.38,13.29c-2.79,2.98-6.2,3.58-9.98,3.21
			c-0.19-0.02-0.38-0.07-0.57-0.1c-4.2-0.63-5.61-2.35-6.65-6.3c-0.17-0.63-0.26-1.28-0.39-1.93c-0.48,0.06-0.56,0.45-0.72,0.71
			c-0.87,1.44-1.92,2.76-2.98,4.06c-1.79,2.19-5.98,3.2-8.58,2.11c-0.85-0.36-1.56-0.9-2.14-1.65c-1.29-1.68-2.16-3.53-2.28-5.65
			c-0.27-4.95,0.26-9.77,2.46-14.3c2.46-5.06,6.33-7.06,12.21-6.76c1.35,0.07,2.1,0.46,3.63,1.58c0.07-0.05,0.18-0.07,0.21-0.14
			c1.62-3.22,3.16-3.2,6.74-2.73c0.74,0.1,1.06,0.59,1.11,1.29c0.12,1.82,0.25,3.63,0.07,5.46c-0.54,5.54-1.13,11.07-1.08,16.65
			c0.02,1.51,0.24,2.96,0.84,4.34c0.93,2.15,2.59,2.63,4.5,1.31c2.53-1.76,4.4-4.12,5.97-6.74c1.75-2.93,3.17-6.02,4.48-9.17
			c0.41-0.98,1-1.86,1.38-2.84c0.14-0.37,0.47-0.47,0.83-0.39C178.53,123.38,178.37,123.73,178.35,124.07z M150.9,116.48
			c-0.41-0.24-0.83-0.48-1.28-0.65c-1.59-0.6-2.26-0.35-2.94,1.24c-0.47,1.1-0.82,2.25-1.16,3.4c-1.42,4.73-2.75,9.47-3.1,14.43
			c-0.12,2,0.12,3.93,1.08,5.72c0.53,0.99,0.9,1.01,1.77,0.3c2.06-1.7,3.7-3.75,5.05-6.04c0.67-1.13,1.05-2.35,1.14-3.67
			c0.29-3.87,0.47-7.76,0.97-11.6C152.64,118,152.09,117.18,150.9,116.48z"/>
		<path class="st0" d="M183.85,126.91c1.1-1.92,2.13-3.8,3.43-5.52c1.22-1.62,2.59-3.1,4.18-4.35c2.06-1.63,4.38-2.31,7.01-1.85
			c0.8,0.14,1.61,0.18,2.41,0.37c3.34,0.83,5.66,3.44,6.07,6.87c0.27,2.31-0.01,4.6-0.16,6.9c-0.18,2.82-0.64,5.63-0.18,8.47
			c0.21,1.29,0.58,2.52,1.3,3.63c0.36,0.56,0.75,0.75,1.42,0.39c1.15-0.61,2.25-1.31,3.24-2.13c5.38-4.42,9.09-9.96,10.93-16.7
			c0.19-0.69,0.28-1.41,0.41-2.12c0.04-0.2,0.11-0.37,0.35-0.37c0.29-0.01,0.46,0.15,0.46,0.42c0,0.38-0.02,0.77-0.07,1.14
			c-0.71,5.38-3.14,10.02-6.18,14.4c-1.37,1.98-3.07,3.68-4.76,5.38c-2.37,2.37-5.28,2.98-8.47,2.68c-0.85-0.08-1.71-0.21-2.55-0.43
			c-2.08-0.56-3.43-1.86-4.11-3.86c-0.85-2.49-1.01-5.08-0.78-7.68c0.4-4.54,0.72-9.09,0.9-13.65c0.1-2.5-0.57-2.97-2.82-1.91
			c-1.14,0.54-2.13,1.29-3.03,2.17c-2.16,2.1-3.83,4.54-5.07,7.28c-1.41,3.12-2.3,6.4-3.11,9.71c-0.16,0.65,0.06,1.23,0.22,1.83
			c0.24,0.93,0.69,1.79,0.75,2.77c0.08,1.27-0.09,1.62-1.18,2.19c-1.12,0.58-2.33,0.91-3.56,1.1c-1.95,0.31-3.07-0.34-3.85-2.21
			c-0.54-1.29-0.96-2.63-1.16-4c-0.91-6.25-1.12-12.52-0.08-18.78c0.12-0.7,0.32-1.41,0.58-2.07c0.35-0.89,0.98-1.55,1.93-1.8
			c1.3-0.35,2.61-0.63,3.96-0.69c1.86-0.08,2.65,0.87,2.31,2.69c-0.34,1.79-0.62,3.6-0.7,5.42
			C183.79,124.04,183.85,125.47,183.85,126.91z"/>
		<path class="st0" d="M265.42,122.31c-0.02,0.62-0.06,1.24-0.17,1.86c-0.73,3.96-2.34,7.6-4.17,11.14
			c-1.57,3.03-3.47,5.84-5.51,8.59c-3.67,4.93-10.98,4.68-14.69,2.17c-2.89-1.96-4.89-4.55-6.03-7.83
			c-0.18-0.52-0.21-1.13-0.71-1.63c-0.75,1.54-1.52,2.96-2.55,4.22c-1.55,1.9-3.34,3.41-5.85,3.9c-3.53,0.69-7.01-1.08-8.5-4.39
			c-1.51-3.35-1.39-6.81-0.75-10.31c0.08-0.42,0.17-0.85,0.28-1.26c1.57-6.07,5.76-9.66,12.13-10.41c1.43-0.17,2.86-0.32,4.31-0.14
			c1.08,0.13,1.11,0.1,1.29-0.98c0.51-3.12,1.06-6.24,1.81-9.32c1.23-5.07,2.97-9.92,6.1-14.18c1.62-2.2,3.68-3.74,6.41-4.33
			c1-0.22,2.01-0.25,3.01-0.12c1.62,0.21,3.2,0.57,4.76,1.09c1.73,0.57,2.68,1.76,3.07,3.48c0.43,1.87,0.28,3.71-0.17,5.55
			c-0.7,2.88-2.06,5.47-3.48,8.03c-1.16,2.1-2.44,4.13-3.67,6.19c-1.18,2-2.75,3.69-4.23,5.45c-1.67,1.99-3.43,3.88-5.34,5.62
			c-0.42,0.38-0.63,0.81-0.63,1.38c0.06,5.1,0.47,10.16,1.95,15.07c0.45,1.49,1.18,2.85,2.19,4.02c1.61,1.84,2.34,1.63,3.97,0.68
			c1.17-0.68,2.22-1.52,3.09-2.56c2.42-2.87,4.57-5.92,6.1-9.37c0.9-2.02,1.8-4.03,2.71-6.04c0.46-1.01,0.71-2.09,0.95-3.16
			c0.19-0.85,0.55-1.63,0.95-2.4c0.13-0.26,0.28-0.5,0.61-0.55C265.08,121.71,265.44,121.75,265.42,122.31z M232.99,119.31
			c-0.28-0.07-0.57-0.08-0.71-0.1c-1.01,0-1.73,0.35-2.35,0.92c-1.5,1.38-2.72,2.96-3.47,4.88c-1.16,2.97-1.7,6.09-1.99,9.24
			c-0.18,1.9-0.5,3.81-0.07,5.73c0.2,0.91,0.6,1.71,1.19,2.42c0.37,0.45,0.73,0.54,1.22,0.16c0.72-0.56,1.41-1.15,2.04-1.82
			c2-2.13,3.3-4.69,4.57-7.28c0.3-0.6,0.23-1.21,0.18-1.83c-0.33-3.69-0.38-7.37,0.29-11.04
			C234.04,119.74,233.88,119.53,232.99,119.31z M242.48,123.05c0.5-0.55,0.85-0.93,1.18-1.32c1.09-1.27,2.15-2.58,3.27-3.82
			c3.45-3.82,5.96-8.2,7.89-12.94c0.74-1.83,1.26-3.73,1.51-5.68c0.31-2.47,0.14-4.88-1.45-7.07c-0.76,0.33-1.22,0.82-1.71,1.28
			c-4.16,3.89-6.6,8.76-8.01,14.2c-1.15,4.46-1.81,9.01-2.6,13.54C242.48,121.75,242.26,122.28,242.48,123.05z"/>
		<path class="st0" d="M303.37,124.07c-0.07,1.37-0.52,2.63-0.99,3.88c-1.89,5-4.72,9.38-8.38,13.29c-2.79,2.98-6.2,3.58-9.98,3.21
			c-0.19-0.02-0.38-0.07-0.57-0.1c-4.2-0.63-5.61-2.35-6.65-6.3c-0.17-0.63-0.26-1.28-0.39-1.93c-0.48,0.06-0.56,0.45-0.72,0.71
			c-0.87,1.44-1.92,2.76-2.98,4.06c-1.79,2.19-5.98,3.2-8.58,2.11c-0.85-0.36-1.56-0.9-2.14-1.65c-1.29-1.68-2.16-3.53-2.28-5.65
			c-0.27-4.95,0.26-9.77,2.46-14.3c2.46-5.06,6.33-7.06,12.21-6.76c1.35,0.07,2.1,0.46,3.63,1.58c0.07-0.05,0.18-0.07,0.21-0.14
			c1.62-3.22,3.16-3.2,6.74-2.73c0.74,0.1,1.06,0.59,1.11,1.29c0.12,1.82,0.25,3.63,0.07,5.46c-0.54,5.54-1.13,11.07-1.08,16.65
			c0.02,1.51,0.24,2.96,0.84,4.34c0.93,2.15,2.59,2.63,4.5,1.31c2.53-1.76,4.4-4.12,5.97-6.74c1.75-2.93,3.17-6.02,4.48-9.17
			c0.41-0.98,1-1.86,1.38-2.84c0.14-0.37,0.47-0.47,0.83-0.39C303.55,123.38,303.39,123.73,303.37,124.07z M275.91,116.48
			c-0.41-0.24-0.83-0.48-1.28-0.65c-1.59-0.6-2.26-0.35-2.94,1.24c-0.47,1.1-0.82,2.25-1.16,3.4c-1.42,4.73-2.75,9.47-3.1,14.43
			c-0.12,2,0.12,3.93,1.08,5.72c0.53,0.99,0.9,1.01,1.77,0.3c2.06-1.7,3.7-3.75,5.05-6.04c0.67-1.13,1.05-2.35,1.14-3.67
			c0.29-3.87,0.47-7.76,0.97-11.6C277.65,118,277.11,117.18,275.91,116.48z"/>
		<path class="st0" d="M324.75,127.14c-0.23,2.94,0.62,6.11,2.1,9.13c1.43,2.91,3.61,5.04,6.61,6.32c0.93,0.4,1.78,0.47,2.75,0.11
			c3.32-1.22,6.35-2.94,9.08-5.17c1.64-1.34,3.13-2.84,4.58-4.37c2.6-2.75,4.75-5.77,5.88-9.44c0.15-0.5,0.4-0.97,0.62-1.45
			c0.23-0.48,0.66-0.49,1.11-0.44c0.56,0.07,0.48,0.51,0.48,0.88c0.02,0.82-0.08,1.64-0.44,2.38c-0.77,1.61-1.27,3.32-1.82,5
			c-1.38,4.16-4,7.41-7.28,10.16c-2.83,2.37-6.02,4.15-9.72,4.71c-4.43,0.66-8.81,0.38-12.99-1.38c-3.42-1.44-5.86-3.93-7.52-7.22
			c-1.47-2.92-2.28-6.03-2.23-9.29c0.08-6.17,0.87-12.25,2.86-18.12c1.69-4.96,4.37-9.38,7.53-13.52c0.82-1.07,1.81-1.98,2.83-2.87
			c2.16-1.88,4.68-2.49,7.49-2.26c2.01,0.16,4.01,0.19,5.99,0.66c2.53,0.6,4.27,2.02,5.28,4.42c2.01,4.75,1.98,9.51,0.17,14.3
			c-0.45,1.18-0.92,1.49-1.88,1.42c-0.99-0.07-1.38-0.41-1.47-1.41c-0.08-0.96-0.01-1.92,0.08-2.87c0.22-2.34,0.4-4.7-0.14-7.02
			c-0.56-2.44-1.61-4.62-3.58-6.26c-1.17-0.98-1.38-0.99-2.61-0.12c-1.66,1.17-3.03,2.64-4.25,4.26c-5.3,7.04-8.34,14.94-9.17,23.71
			C324.94,123.14,324.76,124.9,324.75,127.14z"/>
		<path class="st0" d="M396.02,124.07c-0.07,1.37-0.52,2.63-0.99,3.88c-1.89,5-4.72,9.38-8.38,13.29c-2.79,2.98-6.19,3.58-9.98,3.21
			c-0.19-0.02-0.38-0.07-0.57-0.1c-4.2-0.63-5.61-2.35-6.65-6.3c-0.17-0.63-0.26-1.28-0.39-1.93c-0.48,0.06-0.56,0.45-0.72,0.71
			c-0.87,1.44-1.92,2.76-2.98,4.06c-1.79,2.19-5.98,3.2-8.58,2.11c-0.85-0.36-1.56-0.9-2.14-1.65c-1.29-1.68-2.17-3.53-2.28-5.65
			c-0.27-4.95,0.26-9.77,2.46-14.3c2.46-5.06,6.33-7.06,12.21-6.76c1.35,0.07,2.1,0.46,3.63,1.58c0.07-0.05,0.18-0.07,0.21-0.14
			c1.62-3.22,3.16-3.2,6.74-2.73c0.74,0.1,1.06,0.59,1.11,1.29c0.12,1.82,0.25,3.63,0.07,5.46c-0.54,5.54-1.13,11.07-1.08,16.65
			c0.02,1.51,0.24,2.96,0.84,4.34c0.93,2.15,2.59,2.63,4.5,1.31c2.53-1.76,4.4-4.12,5.97-6.74c1.75-2.93,3.17-6.02,4.48-9.17
			c0.41-0.98,1-1.86,1.38-2.84c0.14-0.37,0.47-0.47,0.83-0.39C396.19,123.38,396.03,123.73,396.02,124.07z M368.56,116.48
			c-0.41-0.24-0.83-0.48-1.28-0.65c-1.59-0.6-2.26-0.35-2.94,1.24c-0.47,1.1-0.82,2.25-1.16,3.4c-1.42,4.73-2.75,9.47-3.1,14.43
			c-0.12,2,0.12,3.93,1.08,5.72c0.53,0.99,0.9,1.01,1.77,0.3c2.06-1.7,3.7-3.75,5.05-6.04c0.67-1.13,1.05-2.35,1.14-3.67
			c0.29-3.87,0.47-7.76,0.97-11.6C370.3,118,369.76,117.18,368.56,116.48z"/>
		<path class="st0" d="M421.65,123.99c-0.39,1.38-0.68,2.81-1.24,4.13c-1.57,3.67-3.59,7.11-5.83,10.41
			c-1.56,2.32-3.69,3.86-6.53,4.33c-2.18,0.36-4.35,0.72-6.57,0.31c-2.37-0.43-4.15-1.67-5.41-3.7c-1.42-2.28-2.09-4.84-2.57-7.44
			c-1.37-7.48-1.83-15.05-1.76-22.64c0.03-3.46,0.13-6.91,0.87-10.31c0.32-1.46,0.75-2.87,1.38-4.23c2.3-4.92,6.4-7.05,11.73-6.1
			c0.33,0.06,0.66,0.13,0.99,0.19c2.9,0.59,4.03,1.71,4.55,4.62c0.17,0.94,0.19,1.91,0.29,2.95c-0.58,5.98-1.77,11.87-4.47,17.38
			c-1.69,3.45-3.45,6.85-5.38,10.18c-0.3,0.52-0.47,1.01-0.38,1.63c0.41,2.95,0.83,5.89,1.69,8.75c0.66,2.19,1.66,4.19,3.31,5.82
			c0.93,0.91,0.98,0.91,2.08,0.26c2.66-1.58,4.68-3.81,6.45-6.29c2.24-3.13,4.22-6.41,5.5-10.07c0.06-0.18,0.14-0.36,0.22-0.53
			c0.17-0.37,0.47-0.48,0.83-0.37C421.82,123.39,421.72,123.73,421.65,123.99z M401.04,122.27c0.78-0.86,1.09-1.67,1.52-2.4
			c3.65-6.22,5.9-12.88,6.39-20.11c0.18-2.68-0.02-5.28-1.34-7.68c-0.8-1.45-1.01-1.45-2.07-0.18c-2.97,3.55-4.46,7.69-4.81,12.25
			C400.27,110.11,400.48,116.05,401.04,122.27z"/>
		<path class="st0" d="M438.26,122.33c-0.01,1.45-0.29,2.87-0.69,4.25c-0.82,2.81-1.66,5.61-2.95,8.25
			c-0.66,1.35-1.47,2.58-2.43,3.73c-1.83,2.22-4.19,3.44-7.03,3.79c-1.38,0.17-2.75,0.36-4.15,0.05c-2.23-0.5-3.81-1.68-4.44-3.99
			c-0.37-1.35-0.69-2.71-0.75-4.09c-0.18-4.76,0.06-9.49,0.81-14.2c0.3-1.92,1.12-3.65,2.19-5.27c0.55-0.83,1.3-1.25,2.27-1.28
			c0.72-0.02,1.44-0.05,2.16-0.03c1.34,0.04,1.58,0.27,1.79,1.55c0.28,1.72,0.29,3.45,0.15,5.17c-0.26,3.11-0.51,6.21-0.64,9.33
			c-0.11,2.59-0.11,5.19,0.73,7.69c0.25,0.75,0.46,1.55,1.11,2.25c1.69-1.19,3.14-2.57,4.31-4.21c2.72-3.82,4.67-8.02,6.04-12.5
			c0.08-0.27,0.13-0.56,0.25-0.82c0.19-0.44,0.59-0.46,0.97-0.37C438.37,121.7,438.26,122.06,438.26,122.33z M420.34,104.52
			c-0.78-1.49,0.47-4.2,2.19-4.68c1.05-0.29,2.15-0.46,3.26-0.4c1.03,0.06,1.35,0.33,1.47,1.38c0.14,1.23,0.24,2.46-0.2,3.69
			c-0.34,0.93-0.28,1.87,0.49,2.61c-1.63,1.29-4.67,0.5-5.77-0.64C421.22,105.88,420.72,105.24,420.34,104.52z"/>
		<path class="st0" d="M444.77,123.28c4.2,4.16,7.04,9.12,9.19,14.58c1.79-1.08,3.2-2.36,4.45-3.81c2.08-2.42,3.75-5.09,4.67-8.19
			c0.15-0.5,0.35-1,0.54-1.49c0.14-0.35,0.38-0.53,0.79-0.41c0.43,0.12,0.44,0.36,0.39,0.75c-0.32,3.1-1.71,5.76-3.4,8.29
			c-1.56,2.34-3.45,4.35-5.77,5.96c-0.98,0.68-0.95,0.72-0.63,1.86c1.02,3.56,1.33,7.17,0.71,10.82c-0.33,1.9-0.93,3.72-2.34,5.16
			c-1.52,1.55-3.48,2.18-5.53,2.52c-2.14,0.35-4.3,0.43-6.42-0.18c-2.65-0.76-4.13-2.62-4.16-5.36c-0.04-3.11,1.2-5.68,3.59-7.68
			c1.55-1.3,3.37-2.2,5.15-3.13c1.08-0.56,1.46-1.22,1.3-2.49c-0.34-2.83-1.31-5.37-2.8-7.78c-2.31-3.73-5.2-7.01-7.86-10.46
			c-1.17-1.51-2.27-3.06-2.84-4.96c-0.91-3.06,0.06-5.92,2.84-7.55c2.87-1.68,5.94-2.41,9.25-1.5c0.92,0.25,1.86,0.49,2.74,0.85
			c2.38,0.96,3.47,3.06,2.9,5.57c-0.61,2.74-2.19,4.86-4.31,6.62C446.46,121.95,445.67,122.56,444.77,123.28z M447.36,144.05
			c-1.99,0.97-3.63,2.03-5.08,3.36c-0.9,0.83-1.49,1.87-1.84,3.04c-0.76,2.53,0.31,5.2,2.54,6.61c0.64,0.41,1.04,0.29,1.44-0.25
			c0.11-0.15,0.25-0.29,0.35-0.46C447.15,152.64,447.71,148.55,447.36,144.05z M444.03,122.26c1.56-1.17,2.96-2.46,4.22-3.9
			c0.8-0.92,1.33-1.98,1.62-3.16c0.46-1.9-0.03-3.48-1.52-4.77c-0.58-0.5-1.14-0.62-1.81-0.22c-1.53,0.91-3,1.94-3.94,3.48
			c-1.14,1.86-1.77,3.86-0.61,5.97C442.5,120.61,443.2,121.47,444.03,122.26z"/>
		<path class="st0" d="M474.88,108.64c0.55,0.31,1.14,0.14,1.7,0.1c1.48-0.1,2.96-0.24,4.44-0.41c1.17-0.14,2.3,0.11,3.44,0.25
			c0.79,0.1,1.28,0.77,1.77,1.5c-1.08,0.5-2.15,0.65-3.23,0.65c-2.5,0.02-4.99,0.08-7.48,0.26c-0.72,0.05-1.13,0.19-1.25,0.99
			c-0.91,5.93-1.91,11.84-1.54,17.89c0.22,3.66,1.21,7.08,2.94,10.29c1.17,2.17,3.05,3.24,5.46,3.46c1.14,0.1,2.18-0.14,3.15-0.76
			c2.77-1.74,4.92-4.13,6.81-6.75c1.91-2.67,3.33-5.6,4.49-8.67c0.56-1.45,0.75-2.97,0.95-4.49c0.04-0.33,0.1-0.66,0.18-0.99
			c0.07-0.27,0.3-0.35,0.56-0.32c0.25,0.03,0.28,0.25,0.28,0.43c0.04,1.59-0.1,3.17-0.42,4.72c-1.25,5.94-4.38,10.83-8.72,14.93
			c-2.81,2.65-6.36,3.9-10.19,4.17c-1.9,0.13-3.84,0.25-5.73-0.25c-3.12-0.82-5.39-2.53-6.49-5.72c-1.14-3.3-1.79-6.65-1.9-10.14
			c-0.15-4.82,0.35-9.58,1.04-14.34c0.14-0.95,0.28-1.9,0.38-2.85c0.1-0.88,0.02-0.99-0.8-0.87c-3,0.44-6.03,0.32-9.03,0.68
			c-0.35,0.04-0.66-0.01-0.96-0.2c-0.29-0.18-0.64-0.35-0.64-0.72c0-0.48,0.44-0.57,0.8-0.68c1.16-0.36,2.37-0.34,3.56-0.51
			c2.09-0.29,4.2-0.45,6.3-0.64c1.26-0.11,1.29-0.09,1.42-1.28c0.32-3.03,1.26-5.9,2.25-8.76c0.67-1.95,2.02-2.84,4.01-2.88
			c1.15-0.02,2.3-0.1,3.44,0.17c1.28,0.3,1.79,0.99,1.49,2.28c-0.19,0.79-0.48,1.55-0.74,2.33
			C475.81,103.84,475.04,106.16,474.88,108.64z"/>
		<path class="st0" d="M505.37,143.56c-1.95-0.13-4.28-0.33-6.51-1.16c-3.48-1.3-5.46-3.85-5.96-7.46
			c-0.75-5.43,0.23-10.58,2.72-15.48c1.63-3.21,4.24-4.57,7.75-4.28c1.72,0.14,3.43,0.35,5.11,0.8c0.74,0.2,1.47,0.43,2.12,0.86
			c1.39,0.9,1.8,2.24,1.08,3.73c-0.82,1.71-2.02,3.14-3.47,4.36c-1.91,1.6-3.85,3.18-5.91,4.58c-0.63,0.43-0.89,0.9-0.95,1.63
			c-0.16,2.13-0.03,4.22,0.61,6.26c0.38,1.21,1.01,2.27,1.94,3.15c0.76,0.71,1.59,0.95,2.63,0.67c2.24-0.61,4.33-1.55,6.3-2.75
			c3.41-2.07,6.68-4.34,9.26-7.45c1.69-2.04,3.18-4.21,4.37-6.57c0.19-0.38,0.42-0.75,0.68-1.09c0.16-0.21,0.44-0.18,0.67-0.08
			c0.27,0.12,0.27,0.36,0.17,0.61c-1.53,3.94-3.08,7.86-6.13,10.96c-2.44,2.47-5.08,4.66-8.04,6.49
			C511.33,142.87,508.66,143.57,505.37,143.56z M502,127.44c2.09-1.46,4.12-2.97,5.75-4.93c0.46-0.55,0.84-1.17,1.08-1.86
			c0.3-0.87,0.21-1.69-0.31-2.46c-0.32-0.48-0.68-0.57-1.21-0.28c-1.12,0.62-2.01,1.47-2.68,2.54
			C503.31,122.59,502.45,124.91,502,127.44z"/>
		<path class="st0" d="M531.53,126.91c1.1-1.92,2.13-3.8,3.43-5.52c1.22-1.62,2.59-3.1,4.18-4.35c2.06-1.63,4.38-2.31,7.01-1.85
			c0.8,0.14,1.61,0.18,2.41,0.37c3.33,0.83,5.67,3.44,6.07,6.87c0.27,2.31-0.01,4.6-0.16,6.9c-0.18,2.82-0.64,5.63-0.18,8.47
			c0.21,1.29,0.58,2.52,1.3,3.63c0.36,0.56,0.75,0.75,1.42,0.39c1.15-0.61,2.25-1.31,3.25-2.13c5.38-4.42,9.09-9.96,10.93-16.7
			c0.19-0.69,0.28-1.41,0.41-2.12c0.04-0.2,0.11-0.37,0.35-0.37c0.29-0.01,0.46,0.15,0.46,0.42c0,0.38-0.02,0.77-0.07,1.14
			c-0.71,5.38-3.14,10.02-6.18,14.4c-1.37,1.98-3.07,3.68-4.76,5.38c-2.37,2.37-5.28,2.98-8.47,2.68c-0.85-0.08-1.7-0.21-2.55-0.43
			c-2.08-0.56-3.43-1.86-4.11-3.86c-0.86-2.49-1.01-5.08-0.78-7.68c0.4-4.54,0.72-9.09,0.9-13.65c0.1-2.5-0.57-2.97-2.82-1.91
			c-1.14,0.54-2.13,1.29-3.03,2.17c-2.16,2.1-3.83,4.54-5.07,7.28c-1.41,3.12-2.3,6.4-3.11,9.71c-0.16,0.65,0.06,1.23,0.22,1.83
			c0.24,0.93,0.69,1.79,0.75,2.77c0.08,1.27-0.09,1.62-1.18,2.19c-1.12,0.58-2.33,0.91-3.56,1.1c-1.96,0.31-3.07-0.34-3.85-2.21
			c-0.54-1.29-0.96-2.63-1.16-4c-0.91-6.25-1.12-12.52-0.08-18.78c0.12-0.7,0.32-1.41,0.58-2.07c0.35-0.89,0.98-1.55,1.93-1.8
			c1.3-0.35,2.61-0.63,3.95-0.69c1.86-0.08,2.65,0.87,2.31,2.69c-0.34,1.79-0.62,3.6-0.7,5.42
			C531.47,124.04,531.53,125.47,531.53,126.91z"/>
		<path class="st0" d="M579.59,143.56c-1.95-0.13-4.28-0.33-6.51-1.16c-3.48-1.3-5.46-3.85-5.96-7.46
			c-0.75-5.43,0.23-10.58,2.72-15.48c1.63-3.21,4.24-4.57,7.76-4.28c1.72,0.14,3.43,0.35,5.1,0.8c0.74,0.2,1.47,0.43,2.12,0.86
			c1.39,0.9,1.8,2.24,1.08,3.73c-0.82,1.71-2.02,3.14-3.47,4.36c-1.91,1.6-3.85,3.18-5.91,4.58c-0.63,0.43-0.89,0.9-0.95,1.63
			c-0.16,2.13-0.03,4.22,0.61,6.26c0.38,1.21,1.01,2.27,1.94,3.15c0.76,0.71,1.59,0.95,2.63,0.67c2.24-0.61,4.33-1.55,6.3-2.75
			c3.41-2.07,6.68-4.34,9.26-7.45c1.69-2.04,3.18-4.21,4.37-6.57c0.19-0.38,0.42-0.75,0.68-1.09c0.16-0.21,0.44-0.18,0.67-0.08
			c0.27,0.12,0.27,0.36,0.17,0.61c-1.53,3.94-3.08,7.86-6.13,10.96c-2.44,2.47-5.08,4.66-8.04,6.49
			C585.55,142.87,582.88,143.57,579.59,143.56z M576.22,127.44c2.09-1.46,4.12-2.97,5.75-4.93c0.46-0.55,0.84-1.17,1.08-1.86
			c0.3-0.87,0.21-1.69-0.31-2.46c-0.32-0.48-0.68-0.57-1.21-0.28c-1.12,0.62-2.01,1.47-2.68,2.54
			C577.53,122.59,576.67,124.91,576.22,127.44z"/>
	</g>
	<g>
		<g>
			<path class="st0" d="M26.21,123.05L26.06,123l-0.16,0.01c-1.66,0.14-3.05,0.23-4.14,0.26c-1.09,0.03-2.04,0.04-2.85,0.03
				c-0.81-0.02-1.55-0.04-2.21-0.08c-0.4-0.02-0.82-0.04-1.27-0.04c0.39-1.76,0.79-3.48,1.21-5.15c0.49-1.98,0.95-3.86,1.37-5.63
				c0.42-1.77,0.8-3.41,1.13-4.9c0.33-1.49,0.59-2.8,0.77-3.91l0.09-0.56l-0.51-0.26c-2.25-1.16-4.69-1.15-7.26,0.04L11.79,103
				l-0.01,0.49c-0.07,2.67-0.48,5.77-1.22,9.21c-0.71,3.33-1.5,6.87-2.36,10.64c-0.07,0-0.14,0.01-0.21,0.01
				c-0.26,0.02-0.54,0.02-0.84,0.02h-0.3l-0.23,0.21c-1.03,0.93-1.21,2.06-0.48,3.09L6.37,127h1.07c-0.73,3.55-1.38,7.18-1.94,10.81
				c-0.62,3.99-0.84,7.97-0.67,11.82l0.02,0.54l0.52,0.17c0.37,0.12,0.84,0.22,1.43,0.3c0.57,0.07,1.15,0.12,1.76,0.14
				c0.11,0,0.22,0,0.34,0c0.5,0,0.99-0.03,1.47-0.09c0.62-0.08,1.11-0.2,1.51-0.38l0.55-0.24l-0.08-0.59
				c-0.2-1.42-0.28-3.01-0.23-4.73c0.05-1.74,0.19-3.6,0.41-5.53c0.22-1.92,0.52-3.95,0.89-6.02c0.32-1.82,0.66-3.64,1.03-5.46
				c1.2,0.2,2.5,0.4,3.9,0.58c1.71,0.23,3.91,0.33,6.58,0.3l0.16-0.02c0.93-0.21,1.64-0.58,2.12-1.1c0.48-0.52,0.76-1.08,0.83-1.67
				c0.08-0.61-0.06-1.19-0.41-1.72C27.28,123.61,26.81,123.24,26.21,123.05z"/>
		</g>
		<g>
			<path class="st0" d="M50.72,95.53c-0.37-0.97-1.02-1.35-1.5-1.49l-0.19-0.06l-0.2,0.04c-2.02,0.41-4.25,0.65-6.64,0.72
				c-2.43,0.07-4.95,0.07-7.5,0c-2.57-0.07-5.17-0.15-7.8-0.24c-2.63-0.09-5.22-0.06-7.69,0.08c-2.48,0.14-4.84,0.45-7.03,0.91
				c-2.23,0.47-4.23,1.25-5.93,2.31c-1.73,1.08-3.16,2.54-4.25,4.33c-1.1,1.8-1.74,4.09-1.93,6.8L0,109.79l4.12-0.09l0.03-0.74
				c0.1-2.21,0.33-4,0.68-5.32c0.32-1.21,0.92-2.1,1.82-2.73c0.93-0.65,2.32-1.07,4.11-1.23c1.9-0.17,4.52-0.19,7.78-0.05
				c3.29,0.14,7.42,0.38,12.25,0.71c4.8,0.33,10.74,0.64,17.68,0.92l0.11,0l0.11-0.03c0.78-0.2,1.39-0.7,1.78-1.47
				c0.33-0.65,0.51-1.37,0.56-2.12C51.07,96.89,50.97,96.17,50.72,95.53z"/>
		</g>
	</g>
</g>
</svg>
