<?xml version="1.0" encoding="utf-8"?>
<!-- Generator: Adobe Illustrator 24.0.1, SVG Export Plug-In . SVG Version: 6.00 Build 0)  -->
<svg version="1.1" id="Layer_1" xmlns="http://www.w3.org/2000/svg" xmlns:xlink="http://www.w3.org/1999/xlink" x="0px" y="0px"
	 viewBox="0 0 95.07 80.94" style="enable-background:new 0 0 95.07 80.94;" xml:space="preserve">
<style type="text/css">
	.st0{fill:url(#SVGID_1_);}
</style>
<linearGradient id="SVGID_1_" gradientUnits="userSpaceOnUse" x1="17.5555" y1="-1.629" x2="79.7922" y2="60.6077">
	<stop  offset="0" style="stop-color:#F6955C"/>
	<stop  offset="1" style="stop-color:#E56727"/>
</linearGradient>
<path class="st0" d="M67.91,0c-7.82,0-15.26,3.45-20.37,9.24C42.44,3.38,35.11,0,27.16,0C12.18,0,0,12.18,0,27.16
	c0,5.73,1.51,11.34,4.16,15.82c4.08,6.91,9.44,12.86,20.38,16.31c1.47,6.34,7.48,7.62,12.32,7.62c1.85,0,3.65-0.27,5.2-0.82
	c14.28-5.05,18.09-18.61,18.09-18.61s-0.02,0-0.05-0.01c-1.69,0.74-3.92,1.16-6.41,1.16c-1.04,0-2.12-0.07-3.23-0.23
	c-4.45-0.62-6.73-1.75-9.42-2.49c-2.32-0.63-4.72-1.06-6.65-1.06c-0.62,0-1.19,0.05-1.7,0.14c-3.82,0.73-7.05,3.49-7.82,8
	c3.91,3.29,11.81,3.86,16.86,3.86c2.7,0,4.58-0.17,4.58-0.17c0.02-0.01,0.03-0.01,0.03-0.01c0.01,0-0.04,0.03-0.13,0.08
	c0.06-0.04,0.1-0.07,0.1-0.07c-14.54,6.56-32.48-4.63-38.42-16.88c-1.81-3.74-1.93-8.43-1.93-12.57c0-11.23,9.96-22.05,21.19-22.05
	c7.21,0,13.74,3.72,17.46,9.94l2.92,4.88l2.92-4.88c3.72-6.22,10.25-9.94,17.46-9.94c11.23,0,20.36,10.74,20.36,21.97
	c0,27.53-33.5,47.68-41.8,50.4c-0.77,0.33-1.28,0.91-1.08,2.05c0.35,1.01,0.82,1.17,1.33,1.27c0.4,0.06,0.91,0.13,1.56-0.06
	c9.82-3.22,46.79-21.76,46.79-53.66C95.07,12.18,82.88,0,67.91,0z"/>
</svg>
