<?xml version="1.0" encoding="utf-8"?>
<!-- Generator: Adobe Illustrator 24.0.1, SVG Export Plug-In . SVG Version: 6.00 Build 0)  -->
<svg version="1.1" id="Layer_1" xmlns="http://www.w3.org/2000/svg" xmlns:xlink="http://www.w3.org/1999/xlink" x="0px" y="0px"
	 viewBox="0 0 589.2 189" style="enable-background:new 0 0 589.2 189;" xml:space="preserve">
<style type="text/css">
	.st0{fill:#719171;}
	.st1{fill:url(#SVGID_1_);}
</style>
<g>
	<g>
		<path class="st0" d="M210.9,189.4l-11.2-11.4l0.6,0.1l0,10.8h-1.9v-15h0.1l11.1,11.4l-0.4-0.1l0-10.9h1.9L210.9,189.4L210.9,189.4
			z"/>
		<path class="st0" d="M219.9,183.8c0,0.7,0.2,1.2,0.5,1.8s0.7,0.9,1.3,1.2c0.5,0.3,1.1,0.4,1.8,0.4c0.7,0,1.3-0.1,1.8-0.4
			c0.5-0.3,1-0.7,1.3-1.2c0.3-0.5,0.5-1.1,0.5-1.8v-9.4h1.9v9.4c0,1.1-0.2,2-0.7,2.8c-0.5,0.8-1.1,1.4-2,1.8
			c-0.8,0.4-1.8,0.6-2.8,0.6c-1,0-1.9-0.2-2.8-0.6c-0.8-0.4-1.5-1-2-1.8c-0.5-0.8-0.7-1.7-0.7-2.8v-9.4h1.9V183.8z"/>
		<path class="st0" d="M234.8,174.5h9.7v1.9h-3.9V189h-1.9v-12.7h-3.8V174.5z"/>
		<path class="st0" d="M254.4,174.5c0.7,0,1.4,0.1,2,0.3c0.6,0.2,1.2,0.5,1.6,0.9c0.5,0.4,0.8,0.9,1.1,1.4c0.3,0.6,0.4,1.2,0.4,1.9
			c0,0.6-0.1,1.1-0.3,1.7c-0.2,0.5-0.4,1-0.8,1.5c-0.4,0.4-0.9,0.8-1.5,1.1c-0.6,0.3-1.4,0.4-2.3,0.4h-2.1v5.3h-1.9v-14.5H254.4z
			 M254.6,181.7c0.6,0,1.1-0.1,1.4-0.3c0.4-0.2,0.7-0.4,0.9-0.7c0.2-0.3,0.4-0.6,0.5-0.9c0.1-0.3,0.1-0.6,0.1-0.9
			c0-0.3-0.1-0.6-0.2-0.9c-0.1-0.3-0.3-0.6-0.5-0.9c-0.2-0.3-0.5-0.5-0.9-0.7c-0.4-0.2-0.8-0.3-1.3-0.3h-2.2v5.4H254.6z M257,182.9
			l3.8,6.1h-2.2l-3.9-6L257,182.9z"/>
		<path class="st0" d="M266.8,174.5h1.9V189h-1.9V174.5z"/>
		<path class="st0" d="M286.6,187.9c-0.2,0.2-0.6,0.3-1,0.5c-0.4,0.2-0.9,0.4-1.5,0.5c-0.6,0.1-1.2,0.2-1.8,0.2
			c-1.1,0-2.1-0.2-3-0.6c-0.9-0.4-1.7-0.9-2.3-1.6c-0.6-0.7-1.1-1.4-1.5-2.3c-0.3-0.9-0.5-1.8-0.5-2.8c0-1.1,0.2-2.1,0.5-3
			c0.3-0.9,0.8-1.7,1.5-2.4c0.6-0.7,1.4-1.2,2.3-1.6c0.9-0.4,1.8-0.6,2.9-0.6c0.9,0,1.7,0.1,2.4,0.4c0.7,0.2,1.3,0.5,1.8,0.8
			l-0.8,1.8c-0.4-0.3-0.9-0.5-1.5-0.8c-0.6-0.2-1.2-0.4-1.9-0.4c-0.7,0-1.4,0.1-2,0.4c-0.6,0.3-1.2,0.7-1.7,1.2
			c-0.5,0.5-0.9,1.1-1.1,1.8c-0.3,0.7-0.4,1.4-0.4,2.2c0,0.8,0.1,1.5,0.4,2.2c0.2,0.7,0.6,1.3,1.1,1.8c0.5,0.5,1,0.9,1.7,1.2
			c0.7,0.3,1.4,0.4,2.2,0.4c0.7,0,1.4-0.1,2-0.3s1.1-0.5,1.4-0.8L286.6,187.9z"/>
		<path class="st0" d="M292.9,174.5h1.9V189h-1.9V174.5z"/>
		<path class="st0" d="M301.1,181.7c0-1,0.2-2,0.6-2.9c0.4-0.9,0.9-1.7,1.6-2.4c0.7-0.7,1.5-1.2,2.4-1.6c0.9-0.4,1.8-0.6,2.9-0.6
			c1,0,2,0.2,2.9,0.6s1.7,0.9,2.4,1.6c0.7,0.7,1.2,1.5,1.6,2.4c0.4,0.9,0.6,1.9,0.6,2.9c0,1-0.2,2-0.6,2.9c-0.4,0.9-0.9,1.7-1.6,2.4
			c-0.7,0.7-1.5,1.2-2.4,1.6c-0.9,0.4-1.9,0.6-2.9,0.6c-1,0-2-0.2-2.9-0.6c-0.9-0.4-1.7-0.9-2.4-1.6c-0.7-0.7-1.2-1.5-1.6-2.4
			C301.3,183.8,301.1,182.8,301.1,181.7z M303.1,181.7c0,0.8,0.1,1.5,0.4,2.2c0.3,0.7,0.7,1.2,1.2,1.8c0.5,0.5,1.1,0.9,1.7,1.2
			c0.6,0.3,1.4,0.4,2.1,0.4c0.8,0,1.5-0.1,2.1-0.4c0.6-0.3,1.2-0.7,1.7-1.2c0.5-0.5,0.9-1.1,1.2-1.8c0.3-0.7,0.4-1.4,0.4-2.1
			c0-0.8-0.1-1.5-0.4-2.2c-0.3-0.7-0.7-1.3-1.2-1.8c-0.5-0.5-1.1-0.9-1.7-1.2c-0.7-0.3-1.4-0.4-2.1-0.4c-0.8,0-1.5,0.1-2.1,0.4
			c-0.7,0.3-1.2,0.7-1.7,1.2c-0.5,0.5-0.9,1.1-1.1,1.8C303.3,180.3,303.1,181,303.1,181.7z"/>
		<path class="st0" d="M334.8,189.4l-11.2-11.4l0.6,0.1l0,10.8h-1.9v-15h0.1l11.1,11.4l-0.4-0.1l0-10.9h1.9L334.8,189.4L334.8,189.4
			z"/>
		<path class="st0" d="M342.1,174.5h1.9V189h-1.9V174.5z"/>
		<path class="st0" d="M358.7,177c-0.5-0.3-1-0.5-1.6-0.7c-0.6-0.2-1.2-0.3-1.7-0.3c-0.8,0-1.4,0.2-1.9,0.5
			c-0.5,0.4-0.7,0.8-0.7,1.4c0,0.5,0.1,0.8,0.5,1.2c0.3,0.3,0.7,0.6,1.2,0.8c0.5,0.2,1,0.4,1.5,0.6c0.4,0.2,0.9,0.4,1.3,0.6
			c0.4,0.2,0.8,0.5,1.2,0.8c0.4,0.3,0.6,0.7,0.8,1.2c0.2,0.5,0.3,1,0.3,1.7c0,0.8-0.2,1.5-0.6,2.1c-0.4,0.6-0.9,1.1-1.6,1.5
			c-0.7,0.4-1.6,0.5-2.6,0.5c-0.6,0-1.2-0.1-1.8-0.2c-0.6-0.1-1.1-0.3-1.6-0.6c-0.5-0.2-0.9-0.5-1.3-0.7l0.9-1.5
			c0.3,0.2,0.7,0.4,1.1,0.7c0.4,0.2,0.9,0.4,1.3,0.5c0.5,0.1,0.9,0.2,1.3,0.2c0.5,0,0.9-0.1,1.4-0.2c0.4-0.2,0.8-0.4,1.1-0.8
			c0.3-0.3,0.4-0.8,0.4-1.4c0-0.5-0.1-0.9-0.4-1.2c-0.3-0.3-0.6-0.6-1-0.9c-0.4-0.2-0.9-0.4-1.4-0.6c-0.5-0.2-0.9-0.3-1.4-0.6
			c-0.5-0.2-0.9-0.5-1.3-0.8c-0.4-0.3-0.7-0.7-1-1.1c-0.2-0.4-0.4-1-0.4-1.6c0-0.8,0.2-1.4,0.6-2c0.4-0.6,0.9-1,1.5-1.3
			c0.6-0.3,1.4-0.5,2.2-0.5c0.9,0,1.8,0.1,2.5,0.3c0.7,0.2,1.3,0.5,1.9,0.8L358.7,177z"/>
		<path class="st0" d="M364.7,174.5h9.7v1.9h-3.9V189h-1.9v-12.7h-3.8V174.5z"/>
		<path class="st0" d="M378,189l6.3-15.1h0.1l6.3,15.1h-2.2l-4.7-12.1l1.4-0.9l-5.3,13H378z M381.8,183.5h5.4l0.6,1.7h-6.6
			L381.8,183.5z"/>
	</g>
	<g>
		<g>
			<path class="st0" d="M46.3,150.7c-1.9-0.1-4.2-0.3-6.4-1.1c-3.4-1.3-5.3-3.8-5.8-7.3c-0.7-5.3,0.2-10.4,2.7-15.1
				c1.6-3.1,4.2-4.5,7.6-4.2c1.7,0.1,3.4,0.3,5,0.8c0.7,0.2,1.4,0.4,2.1,0.8c1.4,0.9,1.8,2.2,1.1,3.7c-0.8,1.7-2,3.1-3.4,4.3
				c-1.9,1.6-3.8,3.1-5.8,4.5c-0.6,0.4-0.9,0.9-0.9,1.6c-0.2,2.1,0,4.1,0.6,6.1c0.4,1.2,1,2.2,1.9,3.1c0.7,0.7,1.6,0.9,2.6,0.7
				c2.2-0.6,4.2-1.5,6.2-2.7c3.3-2,6.5-4.2,9.1-7.3c1.7-2,3.1-4.1,4.3-6.4c0.2-0.4,0.4-0.7,0.7-1.1c0.2-0.2,0.4-0.2,0.7-0.1
				c0.3,0.1,0.3,0.4,0.2,0.6c-1.5,3.9-3,7.7-6,10.7c-2.4,2.4-5,4.6-7.9,6.3C52.1,150,49.5,150.7,46.3,150.7z M43,134.9
				c2-1.4,4-2.9,5.6-4.8c0.5-0.5,0.8-1.1,1.1-1.8c0.3-0.8,0.2-1.7-0.3-2.4c-0.3-0.5-0.7-0.6-1.2-0.3c-1.1,0.6-2,1.4-2.6,2.5
				C44.3,130.2,43.4,132.5,43,134.9z"/>
			<path class="st0" d="M66.9,129c1.6,0.1,3,0.3,4.3,0.3c0.9,0,1.9,0.2,2.8,0.4c2,0.4,3.3,1.6,4.2,3.4c0.9,1.9,1.3,3.9,0.6,6
				c-0.8,2.8-1.6,5.6-2.4,8.4c-0.7,2.8-1.2,5.7-1,8.6c0.1,1.2,0.4,2.3,0.9,3.4c0.2,0.4,0.4,0.7,0.7,1.1c1.1,1.4,1.8,1.4,3,0.1
				c1.3-1.4,2.2-3.1,3-4.7c2.7-5.5,4.3-11.3,5.4-17.3c0.5-2.4,0.9-4.8,1.4-7.2c0-0.2,0.1-0.5,0.2-0.7c0.1-0.5,0.4-0.7,0.9-0.7
				c0.6,0,0.7,0.4,0.8,0.8c0.2,1.3,0.2,2.5,0,3.8c-0.7,5.4-2.3,10.5-4.3,15.6c-1.1,2.8-2.3,5.5-3.6,8.3c-2.1,4.7-6.9,6.1-11.1,5.7
				c-2.6-0.3-5.2-3-5.5-5.2c-0.5-3.1-0.1-6.1,0.4-9.1c0.7-4.2,2-8.3,3-12.4c0.4-1.5,1-2.8,1.5-4.3c0.8-2.6,0.3-3.1-2.4-3
				c-2.7,0.2-5.3,0.1-8-0.4c-0.9-0.2-1.8-0.5-2.6-1c-1-0.6-1.7-1.5-1.7-2.7c-0.1-4.5,1.1-8.5,3.7-12.1c1.5-1.9,3.4-3.2,5.8-3.7
				c1.3-0.3,2.5-0.1,3.8,0.2c1.2,0.3,1.7,1.2,1.9,2.4c0.2,1.7,0.1,3.5-0.4,5.2c-0.5,1.6-1.1,3.1-1.9,4.5
				C69.3,124.7,68.3,126.9,66.9,129z M66.3,127.6c1.6-3.1,3.6-6,4.3-9.4c0.3-1.6,0.6-3.1,0.2-4.7c-0.2-0.6-0.2-1.5-0.8-1.5
				c-0.7,0-0.9,0.8-1.2,1.4c-0.5,1.4-1,2.7-1.4,4.1c-0.7,2.5-1.3,5-1.5,7.6C65.9,125.9,65.9,126.7,66.3,127.6z"/>
			<path class="st0" d="M96.9,134.4c1.1-1.9,2.1-3.7,3.4-5.4c1.2-1.6,2.5-3,4.1-4.3c2-1.6,4.3-2.3,6.9-1.8c0.8,0.1,1.6,0.2,2.4,0.4
				c3.3,0.8,5.5,3.4,5.9,6.7c0.3,2.3,0,4.5-0.2,6.8c-0.2,2.8-0.6,5.5-0.2,8.3c0.2,1.3,0.6,2.5,1.3,3.6c0.4,0.6,0.7,0.7,1.4,0.4
				c1.1-0.6,2.2-1.3,3.2-2.1c5.3-4.3,8.9-9.7,10.7-16.3c0.2-0.7,0.3-1.4,0.4-2.1c0-0.2,0.1-0.4,0.3-0.4c0.3,0,0.5,0.1,0.5,0.4
				c0,0.4,0,0.7-0.1,1.1c-0.7,5.3-3.1,9.8-6,14.1c-1.3,1.9-3,3.6-4.7,5.3c-2.3,2.3-5.2,2.9-8.3,2.6c-0.8-0.1-1.7-0.2-2.5-0.4
				c-2-0.5-3.4-1.8-4-3.8c-0.8-2.4-1-5-0.8-7.5c0.4-4.4,0.7-8.9,0.9-13.4c0.1-2.4-0.6-2.9-2.8-1.9c-1.1,0.5-2.1,1.3-3,2.1
				c-2.1,2.1-3.7,4.4-5,7.1c-1.4,3-2.3,6.3-3,9.5c-0.2,0.6,0.1,1.2,0.2,1.8c0.2,0.9,0.7,1.8,0.7,2.7c0.1,1.2-0.1,1.6-1.2,2.1
				c-1.1,0.6-2.3,0.9-3.5,1.1c-1.9,0.3-3-0.3-3.8-2.2c-0.5-1.3-0.9-2.6-1.1-3.9c-0.9-6.1-1.1-12.2-0.1-18.4c0.1-0.7,0.3-1.4,0.6-2
				c0.3-0.9,1-1.5,1.9-1.8c1.3-0.3,2.6-0.6,3.9-0.7c1.8-0.1,2.6,0.8,2.3,2.6c-0.3,1.8-0.6,3.5-0.7,5.3
				C96.9,131.6,96.9,133,96.9,134.4z"/>
			<path class="st0" d="M174.5,131.6c-0.1,1.3-0.5,2.6-1,3.8c-1.9,4.9-4.6,9.2-8.2,13c-2.7,2.9-6.1,3.5-9.8,3.1
				c-0.2,0-0.4-0.1-0.6-0.1c-4.1-0.6-5.5-2.3-6.5-6.2c-0.2-0.6-0.3-1.3-0.4-1.9c-0.5,0.1-0.5,0.4-0.7,0.7c-0.9,1.4-1.9,2.7-2.9,4
				c-1.8,2.1-5.8,3.1-8.4,2.1c-0.8-0.4-1.5-0.9-2.1-1.6c-1.3-1.6-2.1-3.5-2.2-5.5c-0.3-4.8,0.3-9.6,2.4-14c2.4-4.9,6.2-6.9,11.9-6.6
				c1.3,0.1,2.1,0.4,3.6,1.5c0.1,0,0.2-0.1,0.2-0.1c1.6-3.2,3.1-3.1,6.6-2.7c0.7,0.1,1,0.6,1.1,1.3c0.1,1.8,0.2,3.5,0.1,5.3
				c-0.5,5.4-1.1,10.8-1.1,16.3c0,1.5,0.2,2.9,0.8,4.2c0.9,2.1,2.5,2.6,4.4,1.3c2.5-1.7,4.3-4,5.8-6.6c1.7-2.9,3.1-5.9,4.4-9
				c0.4-1,1-1.8,1.3-2.8c0.1-0.4,0.5-0.5,0.8-0.4C174.6,131,174.5,131.3,174.5,131.6z M147.6,124.2c-0.4-0.2-0.8-0.5-1.2-0.6
				c-1.6-0.6-2.2-0.3-2.9,1.2c-0.5,1.1-0.8,2.2-1.1,3.3c-1.4,4.6-2.7,9.3-3,14.1c-0.1,2,0.1,3.8,1.1,5.6c0.5,1,0.9,1,1.7,0.3
				c2-1.7,3.6-3.7,4.9-5.9c0.7-1.1,1-2.3,1.1-3.6c0.3-3.8,0.5-7.6,1-11.3C149.3,125.7,148.8,124.9,147.6,124.2z"/>
			<path class="st0" d="M179.8,134.4c1.1-1.9,2.1-3.7,3.4-5.4c1.2-1.6,2.5-3,4.1-4.3c2-1.6,4.3-2.3,6.9-1.8c0.8,0.1,1.6,0.2,2.4,0.4
				c3.3,0.8,5.5,3.4,5.9,6.7c0.3,2.3,0,4.5-0.2,6.8c-0.2,2.8-0.6,5.5-0.2,8.3c0.2,1.3,0.6,2.5,1.3,3.6c0.4,0.6,0.7,0.7,1.4,0.4
				c1.1-0.6,2.2-1.3,3.2-2.1c5.3-4.3,8.9-9.7,10.7-16.3c0.2-0.7,0.3-1.4,0.4-2.1c0-0.2,0.1-0.4,0.3-0.4c0.3,0,0.5,0.1,0.5,0.4
				c0,0.4,0,0.7-0.1,1.1c-0.7,5.3-3.1,9.8-6,14.1c-1.3,1.9-3,3.6-4.7,5.3c-2.3,2.3-5.2,2.9-8.3,2.6c-0.8-0.1-1.7-0.2-2.5-0.4
				c-2-0.5-3.4-1.8-4-3.8c-0.8-2.4-1-5-0.8-7.5c0.4-4.4,0.7-8.9,0.9-13.4c0.1-2.4-0.6-2.9-2.8-1.9c-1.1,0.5-2.1,1.3-3,2.1
				c-2.1,2.1-3.7,4.4-5,7.1c-1.4,3-2.3,6.3-3,9.5c-0.2,0.6,0.1,1.2,0.2,1.8c0.2,0.9,0.7,1.8,0.7,2.7c0.1,1.2-0.1,1.6-1.2,2.1
				c-1.1,0.6-2.3,0.9-3.5,1.1c-1.9,0.3-3-0.3-3.8-2.2c-0.5-1.3-0.9-2.6-1.1-3.9c-0.9-6.1-1.1-12.2-0.1-18.4c0.1-0.7,0.3-1.4,0.6-2
				c0.3-0.9,1-1.5,1.9-1.8c1.3-0.3,2.6-0.6,3.9-0.7c1.8-0.1,2.6,0.8,2.3,2.6c-0.3,1.8-0.6,3.5-0.7,5.3
				C179.8,131.6,179.8,133,179.8,134.4z"/>
			<path class="st0" d="M259.6,129.9c0,0.6-0.1,1.2-0.2,1.8c-0.7,3.9-2.3,7.4-4.1,10.9c-1.5,3-3.4,5.7-5.4,8.4
				c-3.6,4.8-10.7,4.6-14.4,2.1c-2.8-1.9-4.8-4.4-5.9-7.7c-0.2-0.5-0.2-1.1-0.7-1.6c-0.7,1.5-1.5,2.9-2.5,4.1
				c-1.5,1.9-3.3,3.3-5.7,3.8c-3.5,0.7-6.9-1.1-8.3-4.3c-1.5-3.3-1.4-6.7-0.7-10.1c0.1-0.4,0.2-0.8,0.3-1.2
				c1.5-5.9,5.6-9.5,11.9-10.2c1.4-0.2,2.8-0.3,4.2-0.1c1.1,0.1,1.1,0.1,1.3-1c0.5-3.1,1-6.1,1.8-9.1c1.2-5,2.9-9.7,6-13.9
				c1.6-2.2,3.6-3.7,6.3-4.2c1-0.2,2-0.2,2.9-0.1c1.6,0.2,3.1,0.6,4.7,1.1c1.7,0.6,2.6,1.7,3,3.4c0.4,1.8,0.3,3.6-0.2,5.4
				c-0.7,2.8-2,5.4-3.4,7.9c-1.1,2.1-2.4,4-3.6,6.1c-1.2,2-2.7,3.6-4.1,5.3c-1.6,1.9-3.4,3.8-5.2,5.5c-0.4,0.4-0.6,0.8-0.6,1.3
				c0.1,5,0.5,9.9,1.9,14.7c0.4,1.5,1.2,2.8,2.1,3.9c1.6,1.8,2.3,1.6,3.9,0.7c1.1-0.7,2.2-1.5,3-2.5c2.4-2.8,4.5-5.8,6-9.2
				c0.9-2,1.8-3.9,2.6-5.9c0.4-1,0.7-2,0.9-3.1c0.2-0.8,0.5-1.6,0.9-2.3c0.1-0.3,0.3-0.5,0.6-0.5
				C259.3,129.3,259.7,129.4,259.6,129.9z M227.9,127c-0.3-0.1-0.6-0.1-0.7-0.1c-1,0-1.7,0.3-2.3,0.9c-1.5,1.4-2.7,2.9-3.4,4.8
				c-1.1,2.9-1.7,6-2,9c-0.2,1.9-0.5,3.7-0.1,5.6c0.2,0.9,0.6,1.7,1.2,2.4c0.4,0.4,0.7,0.5,1.2,0.2c0.7-0.5,1.4-1.1,2-1.8
				c2-2.1,3.2-4.6,4.5-7.1c0.3-0.6,0.2-1.2,0.2-1.8c-0.3-3.6-0.4-7.2,0.3-10.8C229,127.4,228.8,127.2,227.9,127z M237.2,130.7
				c0.5-0.5,0.8-0.9,1.2-1.3c1.1-1.2,2.1-2.5,3.2-3.7c3.4-3.7,5.8-8,7.7-12.7c0.7-1.8,1.2-3.6,1.5-5.6c0.3-2.4,0.1-4.8-1.4-6.9
				c-0.7,0.3-1.2,0.8-1.7,1.2c-4.1,3.8-6.5,8.6-7.8,13.9c-1.1,4.4-1.8,8.8-2.5,13.2C237.2,129.4,237,129.9,237.2,130.7z"/>
			<path class="st0" d="M296.8,131.6c-0.1,1.3-0.5,2.6-1,3.8c-1.9,4.9-4.6,9.2-8.2,13c-2.7,2.9-6.1,3.5-9.8,3.1
				c-0.2,0-0.4-0.1-0.6-0.1c-4.1-0.6-5.5-2.3-6.5-6.2c-0.2-0.6-0.3-1.3-0.4-1.9c-0.5,0.1-0.5,0.4-0.7,0.7c-0.9,1.4-1.9,2.7-2.9,4
				c-1.8,2.1-5.8,3.1-8.4,2.1c-0.8-0.4-1.5-0.9-2.1-1.6c-1.3-1.6-2.1-3.5-2.2-5.5c-0.3-4.8,0.3-9.6,2.4-14c2.4-4.9,6.2-6.9,11.9-6.6
				c1.3,0.1,2.1,0.4,3.6,1.5c0.1,0,0.2-0.1,0.2-0.1c1.6-3.2,3.1-3.1,6.6-2.7c0.7,0.1,1,0.6,1.1,1.3c0.1,1.8,0.2,3.5,0.1,5.3
				c-0.5,5.4-1.1,10.8-1.1,16.3c0,1.5,0.2,2.9,0.8,4.2c0.9,2.1,2.5,2.6,4.4,1.3c2.5-1.7,4.3-4,5.8-6.6c1.7-2.9,3.1-5.9,4.4-9
				c0.4-1,1-1.8,1.3-2.8c0.1-0.4,0.5-0.5,0.8-0.4C296.9,131,296.8,131.3,296.8,131.6z M269.9,124.2c-0.4-0.2-0.8-0.5-1.2-0.6
				c-1.6-0.6-2.2-0.3-2.9,1.2c-0.5,1.1-0.8,2.2-1.1,3.3c-1.4,4.6-2.7,9.3-3,14.1c-0.1,2,0.1,3.8,1.1,5.6c0.5,1,0.9,1,1.7,0.3
				c2-1.7,3.6-3.7,4.9-5.9c0.7-1.1,1-2.3,1.1-3.6c0.3-3.8,0.5-7.6,1-11.3C271.6,125.7,271.1,124.9,269.9,124.2z"/>
			<path class="st0" d="M317.7,134.7c-0.2,2.9,0.6,6,2.1,8.9c1.4,2.8,3.5,4.9,6.5,6.2c0.9,0.4,1.7,0.5,2.7,0.1
				c3.2-1.2,6.2-2.9,8.9-5.1c1.6-1.3,3.1-2.8,4.5-4.3c2.5-2.7,4.6-5.6,5.8-9.2c0.2-0.5,0.4-1,0.6-1.4c0.2-0.5,0.6-0.5,1.1-0.4
				c0.5,0.1,0.5,0.5,0.5,0.9c0,0.8-0.1,1.6-0.4,2.3c-0.8,1.6-1.2,3.2-1.8,4.9c-1.3,4.1-3.9,7.3-7.1,9.9c-2.8,2.3-5.9,4.1-9.5,4.6
				c-4.3,0.6-8.6,0.4-12.7-1.4c-3.3-1.4-5.7-3.8-7.4-7.1c-1.4-2.9-2.2-5.9-2.2-9.1c0.1-6,0.8-12,2.8-17.7c1.7-4.8,4.3-9.2,7.4-13.2
				c0.8-1,1.8-1.9,2.8-2.8c2.1-1.8,4.6-2.4,7.3-2.2c2,0.2,3.9,0.2,5.9,0.6c2.5,0.6,4.2,2,5.2,4.3c2,4.6,1.9,9.3,0.2,14
				c-0.4,1.2-0.9,1.5-1.8,1.4c-1-0.1-1.3-0.4-1.4-1.4c-0.1-0.9,0-1.9,0.1-2.8c0.2-2.3,0.4-4.6-0.1-6.9c-0.5-2.4-1.6-4.5-3.5-6.1
				c-1.1-1-1.4-1-2.6-0.1c-1.6,1.1-3,2.6-4.2,4.2c-5.2,6.9-8.2,14.6-9,23.2C317.9,130.7,317.7,132.5,317.7,134.7z"/>
			<path class="st0" d="M387.4,131.6c-0.1,1.3-0.5,2.6-1,3.8c-1.9,4.9-4.6,9.2-8.2,13c-2.7,2.9-6.1,3.5-9.8,3.1
				c-0.2,0-0.4-0.1-0.6-0.1c-4.1-0.6-5.5-2.3-6.5-6.2c-0.2-0.6-0.3-1.3-0.4-1.9c-0.5,0.1-0.5,0.4-0.7,0.7c-0.9,1.4-1.9,2.7-2.9,4
				c-1.8,2.1-5.8,3.1-8.4,2.1c-0.8-0.4-1.5-0.9-2.1-1.6c-1.3-1.6-2.1-3.5-2.2-5.5c-0.3-4.8,0.3-9.6,2.4-14c2.4-4.9,6.2-6.9,11.9-6.6
				c1.3,0.1,2.1,0.4,3.6,1.5c0.1,0,0.2-0.1,0.2-0.1c1.6-3.2,3.1-3.1,6.6-2.7c0.7,0.1,1,0.6,1.1,1.3c0.1,1.8,0.2,3.5,0.1,5.3
				c-0.5,5.4-1.1,10.8-1.1,16.3c0,1.5,0.2,2.9,0.8,4.2c0.9,2.1,2.5,2.6,4.4,1.3c2.5-1.7,4.3-4,5.8-6.6c1.7-2.9,3.1-5.9,4.4-9
				c0.4-1,1-1.8,1.3-2.8c0.1-0.4,0.5-0.5,0.8-0.4C387.6,131,387.4,131.3,387.4,131.6z M360.5,124.2c-0.4-0.2-0.8-0.5-1.2-0.6
				c-1.6-0.6-2.2-0.3-2.9,1.2c-0.5,1.1-0.8,2.2-1.1,3.3c-1.4,4.6-2.7,9.3-3,14.1c-0.1,2,0.1,3.8,1.1,5.6c0.5,1,0.9,1,1.7,0.3
				c2-1.7,3.6-3.7,4.9-5.9c0.7-1.1,1-2.3,1.1-3.6c0.3-3.8,0.5-7.6,1-11.3C362.2,125.7,361.7,124.9,360.5,124.2z"/>
			<path class="st0" d="M412.5,131.6c-0.4,1.4-0.7,2.8-1.2,4c-1.5,3.6-3.5,7-5.7,10.2c-1.5,2.3-3.6,3.8-6.4,4.2
				c-2.1,0.4-4.3,0.7-6.4,0.3c-2.3-0.4-4.1-1.6-5.3-3.6c-1.4-2.2-2-4.7-2.5-7.3c-1.3-7.3-1.8-14.7-1.7-22.2c0-3.4,0.1-6.8,0.9-10.1
				c0.3-1.4,0.7-2.8,1.4-4.1c2.2-4.8,6.3-6.9,11.5-6c0.3,0.1,0.6,0.1,1,0.2c2.8,0.6,3.9,1.7,4.5,4.5c0.2,0.9,0.2,1.9,0.3,2.9
				c-0.6,5.8-1.7,11.6-4.4,17c-1.7,3.4-3.4,6.7-5.3,10c-0.3,0.5-0.5,1-0.4,1.6c0.4,2.9,0.8,5.8,1.7,8.6c0.6,2.1,1.6,4.1,3.2,5.7
				c0.9,0.9,1,0.9,2,0.3c2.6-1.5,4.6-3.7,6.3-6.1c2.2-3.1,4.1-6.3,5.4-9.9c0.1-0.2,0.1-0.3,0.2-0.5c0.2-0.4,0.5-0.5,0.8-0.4
				C412.6,131,412.5,131.3,412.5,131.6z M392.3,129.9c0.8-0.8,1.1-1.6,1.5-2.3c3.6-6.1,5.8-12.6,6.2-19.7c0.2-2.6,0-5.2-1.3-7.5
				c-0.8-1.4-1-1.4-2-0.2c-2.9,3.5-4.4,7.5-4.7,12C391.6,118,391.8,123.8,392.3,129.9z"/>
			<path class="st0" d="M428.7,129.9c0,1.4-0.3,2.8-0.7,4.2c-0.8,2.7-1.6,5.5-2.9,8.1c-0.6,1.3-1.4,2.5-2.4,3.6
				c-1.8,2.2-4.1,3.4-6.9,3.7c-1.4,0.2-2.7,0.4-4.1,0c-2.2-0.5-3.7-1.6-4.3-3.9c-0.4-1.3-0.7-2.6-0.7-4c-0.2-4.7,0.1-9.3,0.8-13.9
				c0.3-1.9,1.1-3.6,2.1-5.2c0.5-0.8,1.3-1.2,2.2-1.3c0.7,0,1.4,0,2.1,0c1.3,0,1.5,0.3,1.7,1.5c0.3,1.7,0.3,3.4,0.1,5.1
				c-0.3,3-0.5,6.1-0.6,9.1c-0.1,2.5-0.1,5.1,0.7,7.5c0.2,0.7,0.5,1.5,1.1,2.2c1.7-1.2,3.1-2.5,4.2-4.1c2.7-3.7,4.6-7.8,5.9-12.2
				c0.1-0.3,0.1-0.5,0.2-0.8c0.2-0.4,0.6-0.4,1-0.4C428.8,129.3,428.7,129.7,428.7,129.9z M411.2,112.5c-0.8-1.5,0.5-4.1,2.1-4.6
				c1-0.3,2.1-0.4,3.2-0.4c1,0.1,1.3,0.3,1.4,1.3c0.1,1.2,0.2,2.4-0.2,3.6c-0.3,0.9-0.3,1.8,0.5,2.6c-1.6,1.3-4.6,0.5-5.6-0.6
				C412.1,113.9,411.6,113.2,411.2,112.5z"/>
			<path class="st0" d="M435.1,130.9c4.1,4.1,6.9,8.9,9,14.3c1.7-1.1,3.1-2.3,4.4-3.7c2-2.4,3.7-5,4.6-8c0.1-0.5,0.3-1,0.5-1.5
				c0.1-0.3,0.4-0.5,0.8-0.4c0.4,0.1,0.4,0.4,0.4,0.7c-0.3,3-1.7,5.6-3.3,8.1c-1.5,2.3-3.4,4.3-5.6,5.8c-1,0.7-0.9,0.7-0.6,1.8
				c1,3.5,1.3,7,0.7,10.6c-0.3,1.9-0.9,3.6-2.3,5c-1.5,1.5-3.4,2.1-5.4,2.5c-2.1,0.3-4.2,0.4-6.3-0.2c-2.6-0.7-4-2.6-4.1-5.2
				c0-3,1.2-5.6,3.5-7.5c1.5-1.3,3.3-2.2,5-3.1c1.1-0.6,1.4-1.2,1.3-2.4c-0.3-2.8-1.3-5.3-2.7-7.6c-2.3-3.6-5.1-6.9-7.7-10.2
				c-1.1-1.5-2.2-3-2.8-4.8c-0.9-3,0.1-5.8,2.8-7.4c2.8-1.6,5.8-2.4,9-1.5c0.9,0.2,1.8,0.5,2.7,0.8c2.3,0.9,3.4,3,2.8,5.5
				c-0.6,2.7-2.1,4.8-4.2,6.5C436.7,129.6,436,130.2,435.1,130.9z M437.6,151.2c-1.9,1-3.6,2-5,3.3c-0.9,0.8-1.5,1.8-1.8,3
				c-0.7,2.5,0.3,5.1,2.5,6.5c0.6,0.4,1,0.3,1.4-0.2c0.1-0.1,0.2-0.3,0.3-0.4C437.4,159.6,438,155.6,437.6,151.2z M434.4,129.9
				c1.5-1.1,2.9-2.4,4.1-3.8c0.8-0.9,1.3-1.9,1.6-3.1c0.4-1.9,0-3.4-1.5-4.7c-0.6-0.5-1.1-0.6-1.8-0.2c-1.5,0.9-2.9,1.9-3.9,3.4
				c-1.1,1.8-1.7,3.8-0.6,5.8C432.9,128.3,433.6,129.1,434.4,129.9z"/>
			<path class="st0" d="M464.6,116.6c0.5,0.3,1.1,0.1,1.7,0.1c1.5-0.1,2.9-0.2,4.3-0.4c1.1-0.1,2.3,0.1,3.4,0.2
				c0.8,0.1,1.2,0.8,1.7,1.5c-1.1,0.5-2.1,0.6-3.2,0.6c-2.4,0-4.9,0.1-7.3,0.3c-0.7,0-1.1,0.2-1.2,1c-0.9,5.8-1.9,11.6-1.5,17.5
				c0.2,3.6,1.2,6.9,2.9,10.1c1.1,2.1,3,3.2,5.3,3.4c1.1,0.1,2.1-0.1,3.1-0.7c2.7-1.7,4.8-4,6.7-6.6c1.9-2.6,3.3-5.5,4.4-8.5
				c0.5-1.4,0.7-2.9,0.9-4.4c0-0.3,0.1-0.7,0.2-1c0.1-0.3,0.3-0.3,0.5-0.3c0.2,0,0.3,0.2,0.3,0.4c0,1.6-0.1,3.1-0.4,4.6
				c-1.2,5.8-4.3,10.6-8.5,14.6c-2.7,2.6-6.2,3.8-10,4.1c-1.9,0.1-3.8,0.2-5.6-0.2c-3.1-0.8-5.3-2.5-6.3-5.6
				c-1.1-3.2-1.7-6.5-1.9-9.9c-0.1-4.7,0.3-9.4,1-14c0.1-0.9,0.3-1.9,0.4-2.8c0.1-0.9,0-1-0.8-0.8c-2.9,0.4-5.9,0.3-8.8,0.7
				c-0.3,0-0.7,0-0.9-0.2c-0.3-0.2-0.6-0.3-0.6-0.7c0-0.5,0.4-0.6,0.8-0.7c1.1-0.4,2.3-0.3,3.5-0.5c2-0.3,4.1-0.4,6.2-0.6
				c1.2-0.1,1.3-0.1,1.4-1.3c0.3-3,1.2-5.8,2.2-8.6c0.7-1.9,2-2.8,3.9-2.8c1.1,0,2.2-0.1,3.4,0.2c1.3,0.3,1.8,1,1.5,2.2
				c-0.2,0.8-0.5,1.5-0.7,2.3C465.5,111.9,464.7,114.1,464.6,116.6z"/>
			<path class="st0" d="M494.4,150.7c-1.9-0.1-4.2-0.3-6.4-1.1c-3.4-1.3-5.3-3.8-5.8-7.3c-0.7-5.3,0.2-10.4,2.7-15.1
				c1.6-3.1,4.2-4.5,7.6-4.2c1.7,0.1,3.4,0.3,5,0.8c0.7,0.2,1.4,0.4,2.1,0.8c1.4,0.9,1.8,2.2,1.1,3.7c-0.8,1.7-2,3.1-3.4,4.3
				c-1.9,1.6-3.8,3.1-5.8,4.5c-0.6,0.4-0.9,0.9-0.9,1.6c-0.2,2.1,0,4.1,0.6,6.1c0.4,1.2,1,2.2,1.9,3.1c0.7,0.7,1.6,0.9,2.6,0.7
				c2.2-0.6,4.2-1.5,6.2-2.7c3.3-2,6.5-4.2,9.1-7.3c1.7-2,3.1-4.1,4.3-6.4c0.2-0.4,0.4-0.7,0.7-1.1c0.2-0.2,0.4-0.2,0.7-0.1
				c0.3,0.1,0.3,0.4,0.2,0.6c-1.5,3.9-3,7.7-6,10.7c-2.4,2.4-5,4.6-7.9,6.3C500.2,150,497.6,150.7,494.4,150.7z M491.1,134.9
				c2-1.4,4-2.9,5.6-4.8c0.5-0.5,0.8-1.1,1.1-1.8c0.3-0.8,0.2-1.7-0.3-2.4c-0.3-0.5-0.7-0.6-1.2-0.3c-1.1,0.6-2,1.4-2.6,2.5
				C492.4,130.2,491.5,132.5,491.1,134.9z"/>
			<path class="st0" d="M520,134.4c1.1-1.9,2.1-3.7,3.4-5.4c1.2-1.6,2.5-3,4.1-4.3c2-1.6,4.3-2.3,6.9-1.8c0.8,0.1,1.6,0.2,2.4,0.4
				c3.3,0.8,5.5,3.4,5.9,6.7c0.3,2.3,0,4.5-0.2,6.8c-0.2,2.8-0.6,5.5-0.2,8.3c0.2,1.3,0.6,2.5,1.3,3.6c0.4,0.6,0.7,0.7,1.4,0.4
				c1.1-0.6,2.2-1.3,3.2-2.1c5.3-4.3,8.9-9.7,10.7-16.3c0.2-0.7,0.3-1.4,0.4-2.1c0-0.2,0.1-0.4,0.3-0.4c0.3,0,0.5,0.1,0.5,0.4
				c0,0.4,0,0.7-0.1,1.1c-0.7,5.3-3.1,9.8-6,14.1c-1.3,1.9-3,3.6-4.7,5.3c-2.3,2.3-5.2,2.9-8.3,2.6c-0.8-0.1-1.7-0.2-2.5-0.4
				c-2-0.5-3.4-1.8-4-3.8c-0.8-2.4-1-5-0.8-7.5c0.4-4.4,0.7-8.9,0.9-13.4c0.1-2.4-0.6-2.9-2.8-1.9c-1.1,0.5-2.1,1.3-3,2.1
				c-2.1,2.1-3.7,4.4-5,7.1c-1.4,3-2.3,6.3-3,9.5c-0.2,0.6,0.1,1.2,0.2,1.8c0.2,0.9,0.7,1.8,0.7,2.7c0.1,1.2-0.1,1.6-1.2,2.1
				c-1.1,0.6-2.3,0.9-3.5,1.1c-1.9,0.3-3-0.3-3.8-2.2c-0.5-1.3-0.9-2.6-1.1-3.9c-0.9-6.1-1.1-12.2-0.1-18.4c0.1-0.7,0.3-1.4,0.6-2
				c0.3-0.9,1-1.5,1.9-1.8c1.3-0.3,2.6-0.6,3.9-0.7c1.8-0.1,2.6,0.8,2.3,2.6c-0.3,1.8-0.6,3.5-0.7,5.3
				C519.9,131.6,520,133,520,134.4z"/>
			<path class="st0" d="M567,150.7c-1.9-0.1-4.2-0.3-6.4-1.1c-3.4-1.3-5.3-3.8-5.8-7.3c-0.7-5.3,0.2-10.4,2.7-15.1
				c1.6-3.1,4.2-4.5,7.6-4.2c1.7,0.1,3.4,0.3,5,0.8c0.7,0.2,1.4,0.4,2.1,0.8c1.4,0.9,1.8,2.2,1.1,3.7c-0.8,1.7-2,3.1-3.4,4.3
				c-1.9,1.6-3.8,3.1-5.8,4.5c-0.6,0.4-0.9,0.9-0.9,1.6c-0.2,2.1,0,4.1,0.6,6.1c0.4,1.2,1,2.2,1.9,3.1c0.7,0.7,1.6,0.9,2.6,0.7
				c2.2-0.6,4.2-1.5,6.2-2.7c3.3-2,6.5-4.2,9.1-7.3c1.7-2,3.1-4.1,4.3-6.4c0.2-0.4,0.4-0.7,0.7-1.1c0.2-0.2,0.4-0.2,0.7-0.1
				c0.3,0.1,0.3,0.4,0.2,0.6c-1.5,3.9-3,7.7-6,10.7c-2.4,2.4-5,4.6-7.9,6.3C572.8,150,570.2,150.7,567,150.7z M563.7,134.9
				c2-1.4,4-2.9,5.6-4.8c0.5-0.5,0.8-1.1,1.1-1.8c0.3-0.8,0.2-1.7-0.3-2.4c-0.3-0.5-0.7-0.6-1.2-0.3c-1.1,0.6-2,1.4-2.6,2.5
				C565,130.2,564.1,132.5,563.7,134.9z"/>
		</g>
		<g>
			<g>
				<path class="st0" d="M25.6,130.6l-0.2,0l-0.2,0c-1.6,0.1-3,0.2-4,0.3c-1.1,0-2,0-2.8,0c-0.8,0-1.5,0-2.2-0.1c-0.4,0-0.8,0-1.2,0
					c0.4-1.7,0.8-3.4,1.2-5c0.5-1.9,0.9-3.8,1.3-5.5c0.4-1.7,0.8-3.3,1.1-4.8c0.3-1.5,0.6-2.7,0.8-3.8l0.1-0.6l-0.5-0.3
					c-2.2-1.1-4.6-1.1-7.1,0l-0.4,0.2l0,0.5c-0.1,2.6-0.5,5.6-1.2,9c-0.7,3.3-1.5,6.7-2.3,10.4c-0.1,0-0.1,0-0.2,0
					c-0.3,0-0.5,0-0.8,0H6.7l-0.2,0.2c-1,0.9-1.2,2-0.5,3l0.2,0.3h1c-0.7,3.5-1.3,7-1.9,10.6c-0.6,3.9-0.8,7.8-0.7,11.6l0,0.5
					l0.5,0.2c0.4,0.1,0.8,0.2,1.4,0.3c0.6,0.1,1.1,0.1,1.7,0.1c0.1,0,0.2,0,0.3,0c0.5,0,1,0,1.4-0.1c0.6-0.1,1.1-0.2,1.5-0.4
					l0.5-0.2l-0.1-0.6c-0.2-1.4-0.3-2.9-0.2-4.6c0.1-1.7,0.2-3.5,0.4-5.4c0.2-1.9,0.5-3.9,0.9-5.9c0.3-1.8,0.7-3.6,1-5.3
					c1.2,0.2,2.4,0.4,3.8,0.6c1.7,0.2,3.8,0.3,6.4,0.3l0.2,0c0.9-0.2,1.6-0.6,2.1-1.1c0.5-0.5,0.7-1.1,0.8-1.6
					c0.1-0.6-0.1-1.2-0.4-1.7C26.7,131.2,26.2,130.8,25.6,130.6z"/>
			</g>
			<g>
				<path class="st0" d="M49.6,103.7c-0.4-0.9-1-1.3-1.5-1.5l-0.2-0.1l-0.2,0c-2,0.4-4.2,0.6-6.5,0.7c-2.4,0.1-4.8,0.1-7.3,0
					c-2.5-0.1-5.1-0.1-7.6-0.2c-2.6-0.1-5.1-0.1-7.5,0.1c-2.4,0.1-4.7,0.4-6.9,0.9c-2.2,0.5-4.1,1.2-5.8,2.3
					c-1.7,1.1-3.1,2.5-4.2,4.2c-1.1,1.8-1.7,4-1.9,6.6L0,117.7l4-0.1l0-0.7c0.1-2.2,0.3-3.9,0.7-5.2c0.3-1.2,0.9-2.1,1.8-2.7
					c0.9-0.6,2.3-1,4-1.2c1.9-0.2,4.4-0.2,7.6,0c3.2,0.1,7.3,0.4,12,0.7c4.7,0.3,10.5,0.6,17.3,0.9l0.1,0l0.1,0
					c0.8-0.2,1.4-0.7,1.7-1.4c0.3-0.6,0.5-1.3,0.5-2.1C50,105.1,49.9,104.4,49.6,103.7z"/>
			</g>
		</g>
	</g>
	<linearGradient id="SVGID_1_" gradientUnits="userSpaceOnUse" x1="265.7346" y1="-1.5678" x2="325.6338" y2="58.3313">
		<stop  offset="0" style="stop-color:#A1CEA1"/>
		<stop  offset="1" style="stop-color:#719171"/>
	</linearGradient>
	<path class="st1" d="M314.2,0c-7.5,0-14.7,3.3-19.6,8.9C289.7,3.3,282.6,0,275,0c-14.4,0-26.1,11.7-26.1,26.1
		c0,5.5,1.5,10.9,4,15.2c3.9,6.6,9.1,12.4,19.6,15.7c1.4,6.1,7.2,7.3,11.9,7.3c1.8,0,3.5-0.3,5-0.8c13.7-4.9,17.4-17.9,17.4-17.9
		s0,0,0,0c-1.6,0.7-3.8,1.1-6.2,1.1c-1,0-2-0.1-3.1-0.2c-4.3-0.6-6.5-1.7-9.1-2.4c-2.2-0.6-4.5-1-6.4-1c-0.6,0-1.1,0-1.6,0.1
		c-3.7,0.7-6.8,3.4-7.5,7.7c3.8,3.2,11.4,3.7,16.2,3.7c2.6,0,4.4-0.2,4.4-0.2c0,0,0,0,0,0c0,0,0,0-0.1,0.1c0.1,0,0.1-0.1,0.1-0.1
		c-14,6.3-31.3-4.5-37-16.2c-1.7-3.6-1.9-8.1-1.9-12.1C254.6,15.4,264.2,5,275,5c6.9,0,13.2,3.6,16.8,9.6l2.8,4.7l2.8-4.7
		c3.6-6,9.9-9.6,16.8-9.6c10.8,0,19.6,10.3,19.6,21.1c0,26.5-32.2,45.9-40.2,48.5c-0.7,0.3-1.2,0.9-1,2c0.3,1,0.8,1.1,1.3,1.2
		c0.4,0.1,0.9,0.1,1.5-0.1c9.4-3.1,45-20.9,45-51.6C340.3,11.7,328.6,0,314.2,0z"/>
</g>
</svg>
