<?xml version="1.0" encoding="utf-8"?>
<!-- Generator: Adobe Illustrator 24.0.1, SVG Export Plug-In . SVG Version: 6.00 Build 0)  -->
<svg version="1.1" id="Layer_1" xmlns="http://www.w3.org/2000/svg" xmlns:xlink="http://www.w3.org/1999/xlink" x="0px" y="0px"
	 viewBox="0 0 91.5 77.9" style="enable-background:new 0 0 91.5 77.9;" xml:space="preserve">
<style type="text/css">
	.st0{fill:url(#SVGID_1_);}
</style>
<linearGradient id="SVGID_1_" gradientUnits="userSpaceOnUse" x1="16.8962" y1="-1.5678" x2="76.7953" y2="58.3313">
	<stop  offset="0" style="stop-color:#A1CEA1"/>
	<stop  offset="1" style="stop-color:#719171"/>
</linearGradient>
<path class="st0" d="M65.4,0c-7.5,0-14.7,3.3-19.6,8.9C40.8,3.3,33.8,0,26.1,0C11.7,0,0,11.7,0,26.1C0,31.7,1.5,37,4,41.4
	c3.9,6.6,9.1,12.4,19.6,15.7c1.4,6.1,7.2,7.3,11.9,7.3c1.8,0,3.5-0.3,5-0.8c13.7-4.9,17.4-17.9,17.4-17.9s0,0,0,0
	c-1.6,0.7-3.8,1.1-6.2,1.1c-1,0-2-0.1-3.1-0.2c-4.3-0.6-6.5-1.7-9.1-2.4c-2.2-0.6-4.5-1-6.4-1c-0.6,0-1.1,0-1.6,0.1
	c-3.7,0.7-6.8,3.4-7.5,7.7c3.8,3.2,11.4,3.7,16.2,3.7c2.6,0,4.4-0.2,4.4-0.2c0,0,0,0,0,0c0,0,0,0-0.1,0.1c0.1,0,0.1-0.1,0.1-0.1
	c-14,6.3-31.3-4.5-37-16.2c-1.7-3.6-1.9-8.1-1.9-12.1C5.7,15.4,15.3,5,26.1,5c6.9,0,13.2,3.6,16.8,9.6l2.8,4.7l2.8-4.7
	c3.6-6,9.9-9.6,16.8-9.6C76.2,5,85,15.3,85,26.1C85,52.6,52.7,72,44.7,74.6c-0.7,0.3-1.2,0.9-1,2c0.3,1,0.8,1.1,1.3,1.2
	c0.4,0.1,0.9,0.1,1.5-0.1c9.4-3.1,45-20.9,45-51.6C91.5,11.7,79.8,0,65.4,0z"/>
</svg>
