<?xml version="1.0" encoding="utf-8"?>
<!-- Generator: Adobe Illustrator 24.0.1, SVG Export Plug-In . SVG Version: 6.00 Build 0)  -->
<svg version="1.1" id="Layer_1" xmlns="http://www.w3.org/2000/svg" xmlns:xlink="http://www.w3.org/1999/xlink" x="0px" y="0px"
	 viewBox="0 0 595.4 191.1" style="enable-background:new 0 0 595.4 191.1;" xml:space="preserve">
<style type="text/css">
	.st0{fill:#7FA480;}
	.st1{fill:url(#SVGID_1_);}
</style>
<g>
	<g>
		<path class="st0" d="M213.1,191.4l-11.3-11.5l0.6,0.1l0,10.9h-2v-15.1h0.1l11.2,11.5l-0.4-0.1l0-11h2L213.1,191.4L213.1,191.4z"/>
		<path class="st0" d="M222.2,185.8c0,0.7,0.2,1.3,0.5,1.8s0.7,0.9,1.3,1.2c0.5,0.3,1.1,0.4,1.8,0.4c0.7,0,1.3-0.1,1.8-0.4
			c0.5-0.3,1-0.7,1.3-1.2c0.3-0.5,0.5-1.1,0.5-1.8v-9.5h1.9v9.5c0,1.1-0.2,2-0.7,2.8c-0.5,0.8-1.2,1.4-2,1.8
			c-0.8,0.4-1.8,0.6-2.8,0.6c-1,0-1.9-0.2-2.8-0.6c-0.8-0.4-1.5-1-2-1.8c-0.5-0.8-0.7-1.7-0.7-2.8v-9.5h2V185.8z"/>
		<path class="st0" d="M237.3,176.3h9.8v1.9h-3.9V191h-2v-12.8h-3.9V176.3z"/>
		<path class="st0" d="M257.1,176.3c0.7,0,1.4,0.1,2.1,0.3c0.6,0.2,1.2,0.5,1.6,0.9c0.5,0.4,0.8,0.9,1.1,1.4
			c0.3,0.6,0.4,1.2,0.4,1.9c0,0.6-0.1,1.2-0.3,1.7c-0.2,0.6-0.4,1.1-0.8,1.5c-0.4,0.5-0.9,0.8-1.5,1.1c-0.6,0.3-1.4,0.4-2.3,0.4
			h-2.2v5.4h-2v-14.7H257.1z M257.3,183.7c0.6,0,1.1-0.1,1.5-0.3c0.4-0.2,0.7-0.4,0.9-0.7s0.4-0.6,0.5-0.9c0.1-0.3,0.1-0.6,0.1-0.9
			c0-0.3-0.1-0.6-0.2-0.9c-0.1-0.3-0.3-0.6-0.5-0.9c-0.2-0.3-0.5-0.5-0.9-0.7c-0.4-0.2-0.8-0.3-1.3-0.3h-2.3v5.5H257.3z
			 M259.7,184.8l3.8,6.2h-2.3l-3.9-6.1L259.7,184.8z"/>
		<path class="st0" d="M269.6,176.3h2V191h-2V176.3z"/>
		<path class="st0" d="M289.6,189.9c-0.2,0.2-0.6,0.3-1,0.5c-0.4,0.2-0.9,0.4-1.5,0.5c-0.6,0.1-1.2,0.2-1.9,0.2
			c-1.1,0-2.1-0.2-3.1-0.6c-0.9-0.4-1.7-0.9-2.3-1.6c-0.6-0.7-1.1-1.5-1.5-2.3c-0.3-0.9-0.5-1.8-0.5-2.8c0-1.1,0.2-2.1,0.5-3
			c0.4-0.9,0.9-1.7,1.5-2.4c0.7-0.7,1.4-1.2,2.3-1.6c0.9-0.4,1.9-0.6,2.9-0.6c0.9,0,1.7,0.1,2.4,0.4c0.7,0.2,1.3,0.5,1.8,0.8
			l-0.8,1.9c-0.4-0.3-0.9-0.5-1.5-0.8c-0.6-0.2-1.2-0.4-1.9-0.4c-0.7,0-1.4,0.1-2,0.4c-0.6,0.3-1.2,0.7-1.7,1.2
			c-0.5,0.5-0.9,1.1-1.1,1.8c-0.3,0.7-0.4,1.4-0.4,2.2c0,0.8,0.1,1.5,0.4,2.2c0.3,0.7,0.6,1.3,1.1,1.8c0.5,0.5,1,0.9,1.7,1.2
			c0.7,0.3,1.4,0.4,2.2,0.4c0.7,0,1.4-0.1,2-0.3c0.6-0.2,1.1-0.5,1.4-0.8L289.6,189.9z"/>
		<path class="st0" d="M296,176.3h2V191h-2V176.3z"/>
		<path class="st0" d="M304.3,183.6c0-1,0.2-2,0.6-2.9c0.4-0.9,0.9-1.7,1.6-2.4c0.7-0.7,1.5-1.2,2.4-1.6c0.9-0.4,1.9-0.6,2.9-0.6
			c1,0,2,0.2,2.9,0.6c0.9,0.4,1.7,0.9,2.4,1.6c0.7,0.7,1.2,1.5,1.6,2.4c0.4,0.9,0.6,1.9,0.6,2.9c0,1-0.2,2-0.6,2.9
			c-0.4,0.9-0.9,1.7-1.6,2.4c-0.7,0.7-1.5,1.2-2.4,1.6c-0.9,0.4-1.9,0.6-2.9,0.6c-1,0-2-0.2-2.9-0.6c-0.9-0.4-1.7-0.9-2.4-1.6
			c-0.7-0.7-1.2-1.5-1.6-2.4C304.5,185.7,304.3,184.7,304.3,183.6z M306.3,183.6c0,0.8,0.1,1.5,0.4,2.2c0.3,0.7,0.7,1.3,1.2,1.8
			c0.5,0.5,1.1,0.9,1.7,1.2c0.7,0.3,1.4,0.4,2.1,0.4c0.8,0,1.5-0.1,2.1-0.4c0.7-0.3,1.2-0.7,1.7-1.2c0.5-0.5,0.9-1.1,1.2-1.8
			c0.3-0.7,0.4-1.4,0.4-2.2c0-0.8-0.1-1.5-0.4-2.2c-0.3-0.7-0.7-1.3-1.2-1.8c-0.5-0.5-1.1-0.9-1.7-1.2c-0.7-0.3-1.4-0.4-2.1-0.4
			c-0.8,0-1.5,0.1-2.2,0.4c-0.7,0.3-1.3,0.7-1.7,1.2c-0.5,0.5-0.9,1.1-1.1,1.8C306.5,182.2,306.3,182.9,306.3,183.6z"/>
		<path class="st0" d="M338.4,191.4L327,179.9l0.6,0.1l0,10.9h-2v-15.1h0.1l11.2,11.5l-0.4-0.1l0-11h2L338.4,191.4L338.4,191.4z"/>
		<path class="st0" d="M345.7,176.3h2V191h-2V176.3z"/>
		<path class="st0" d="M362.5,178.9c-0.5-0.3-1-0.5-1.6-0.7c-0.6-0.2-1.2-0.3-1.7-0.3c-0.8,0-1.4,0.2-1.9,0.5
			c-0.5,0.4-0.7,0.9-0.7,1.5c0,0.5,0.2,0.8,0.5,1.2c0.3,0.3,0.7,0.6,1.2,0.8c0.5,0.2,1,0.4,1.5,0.6c0.4,0.2,0.9,0.4,1.3,0.6
			c0.4,0.2,0.8,0.5,1.2,0.8c0.4,0.3,0.6,0.7,0.9,1.2c0.2,0.5,0.3,1.1,0.3,1.7c0,0.8-0.2,1.5-0.6,2.1s-0.9,1.1-1.7,1.5
			s-1.6,0.5-2.6,0.5c-0.6,0-1.2-0.1-1.8-0.2c-0.6-0.1-1.1-0.3-1.6-0.6c-0.5-0.2-0.9-0.5-1.3-0.8l0.9-1.5c0.3,0.2,0.7,0.4,1.1,0.7
			c0.4,0.2,0.9,0.4,1.3,0.5c0.5,0.1,0.9,0.2,1.3,0.2c0.5,0,0.9-0.1,1.4-0.2c0.4-0.2,0.8-0.4,1.1-0.8c0.3-0.4,0.4-0.8,0.4-1.4
			c0-0.5-0.1-0.9-0.4-1.2c-0.3-0.3-0.6-0.6-1-0.9c-0.4-0.2-0.9-0.4-1.4-0.6c-0.5-0.2-0.9-0.4-1.4-0.6c-0.5-0.2-0.9-0.5-1.3-0.8
			c-0.4-0.3-0.7-0.7-1-1.1c-0.3-0.4-0.4-1-0.4-1.6c0-0.8,0.2-1.4,0.6-2c0.4-0.6,0.9-1,1.5-1.4c0.6-0.3,1.4-0.5,2.2-0.5
			c0.9,0,1.8,0.1,2.5,0.3c0.7,0.2,1.4,0.5,1.9,0.8L362.5,178.9z"/>
		<path class="st0" d="M368.6,176.3h9.8v1.9h-3.9V191h-2v-12.8h-3.9V176.3z"/>
		<path class="st0" d="M382,191l6.4-15.3h0.1l6.4,15.3h-2.3l-4.8-12.2l1.4-0.9L384,191H382z M385.8,185.4h5.5l0.6,1.7h-6.7
			L385.8,185.4z"/>
	</g>
	<g>
		<g>
			<path class="st0" d="M46.8,152.3c-1.9-0.1-4.2-0.3-6.4-1.2c-3.4-1.3-5.4-3.8-5.9-7.4c-0.7-5.4,0.2-10.5,2.7-15.3
				c1.6-3.2,4.2-4.5,7.7-4.2c1.7,0.1,3.4,0.3,5,0.8c0.7,0.2,1.5,0.4,2.1,0.8c1.4,0.9,1.8,2.2,1.1,3.7c-0.8,1.7-2,3.1-3.4,4.3
				c-1.9,1.6-3.8,3.1-5.8,4.5c-0.6,0.4-0.9,0.9-0.9,1.6c-0.2,2.1,0,4.2,0.6,6.2c0.4,1.2,1,2.2,1.9,3.1c0.8,0.7,1.6,0.9,2.6,0.7
				c2.2-0.6,4.3-1.5,6.2-2.7c3.4-2,6.6-4.3,9.2-7.4c1.7-2,3.1-4.2,4.3-6.5c0.2-0.4,0.4-0.7,0.7-1.1c0.2-0.2,0.4-0.2,0.7-0.1
				c0.3,0.1,0.3,0.4,0.2,0.6c-1.5,3.9-3,7.8-6.1,10.8c-2.4,2.4-5,4.6-7.9,6.4C52.7,151.6,50,152.3,46.8,152.3z M43.4,136.4
				c2.1-1.4,4.1-2.9,5.7-4.9c0.5-0.5,0.8-1.2,1.1-1.8c0.3-0.9,0.2-1.7-0.3-2.4c-0.3-0.5-0.7-0.6-1.2-0.3c-1.1,0.6-2,1.5-2.6,2.5
				C44.7,131.6,43.9,133.9,43.4,136.4z"/>
			<path class="st0" d="M67.6,130.4c1.6,0.1,3,0.3,4.4,0.3c1,0.1,1.9,0.2,2.8,0.4c2,0.4,3.4,1.6,4.2,3.4c0.9,2,1.3,3.9,0.6,6.1
				c-0.8,2.8-1.7,5.6-2.4,8.5c-0.7,2.9-1.2,5.7-1,8.7c0.1,1.2,0.4,2.3,0.9,3.4c0.2,0.4,0.4,0.8,0.7,1.1c1.2,1.4,1.8,1.4,3,0.1
				c1.3-1.4,2.2-3.1,3-4.8c2.8-5.5,4.3-11.4,5.5-17.4c0.5-2.4,0.9-4.8,1.4-7.3c0-0.2,0.1-0.5,0.2-0.7c0.1-0.5,0.4-0.7,0.9-0.7
				c0.6,0,0.7,0.4,0.8,0.8c0.2,1.3,0.2,2.5,0,3.8c-0.7,5.4-2.3,10.6-4.3,15.7c-1.1,2.8-2.4,5.6-3.6,8.3c-2.1,4.7-7,6.2-11.2,5.7
				c-2.6-0.3-5.2-3-5.6-5.2c-0.5-3.1-0.1-6.2,0.4-9.2c0.7-4.3,2-8.4,3-12.6c0.4-1.5,1-2.8,1.5-4.3c0.8-2.6,0.3-3.2-2.4-3
				c-2.7,0.2-5.4,0.1-8.1-0.4c-0.9-0.2-1.8-0.5-2.6-1c-1-0.6-1.7-1.5-1.7-2.8c-0.2-4.5,1.1-8.6,3.8-12.3c1.5-2,3.5-3.2,5.9-3.7
				c1.3-0.3,2.6-0.1,3.8,0.2c1.2,0.3,1.7,1.2,1.9,2.4c0.2,1.8,0.1,3.5-0.4,5.2c-0.5,1.6-1.1,3.1-1.9,4.6
				C70,126.1,69.1,128.2,67.6,130.4z M67,128.9c1.6-3.1,3.6-6,4.4-9.5c0.3-1.6,0.7-3.2,0.2-4.8c-0.2-0.6-0.2-1.5-0.8-1.5
				c-0.7,0-0.9,0.8-1.2,1.4c-0.5,1.4-1,2.8-1.4,4.2c-0.8,2.5-1.4,5-1.5,7.6C66.6,127.2,66.6,128.1,67,128.9z"/>
			<path class="st0" d="M98,135.8c1.1-1.9,2.1-3.8,3.4-5.5c1.2-1.6,2.6-3.1,4.1-4.3c2-1.6,4.3-2.3,6.9-1.8c0.8,0.1,1.6,0.2,2.4,0.4
				c3.3,0.8,5.6,3.4,6,6.8c0.3,2.3,0,4.5-0.2,6.8c-0.2,2.8-0.6,5.6-0.2,8.4c0.2,1.3,0.6,2.5,1.3,3.6c0.4,0.6,0.7,0.7,1.4,0.4
				c1.1-0.6,2.2-1.3,3.2-2.1c5.3-4.4,9-9.8,10.8-16.5c0.2-0.7,0.3-1.4,0.4-2.1c0-0.2,0.1-0.4,0.3-0.4c0.3,0,0.5,0.1,0.5,0.4
				c0,0.4,0,0.8-0.1,1.1c-0.7,5.3-3.1,9.9-6.1,14.2c-1.4,2-3,3.6-4.7,5.3c-2.3,2.3-5.2,2.9-8.4,2.6c-0.8-0.1-1.7-0.2-2.5-0.4
				c-2.1-0.5-3.4-1.8-4.1-3.8c-0.8-2.5-1-5-0.8-7.6c0.4-4.5,0.7-9,0.9-13.5c0.1-2.5-0.6-2.9-2.8-1.9c-1.1,0.5-2.1,1.3-3,2.1
				c-2.1,2.1-3.8,4.5-5,7.2c-1.4,3.1-2.3,6.3-3.1,9.6c-0.2,0.6,0.1,1.2,0.2,1.8c0.2,0.9,0.7,1.8,0.7,2.7c0.1,1.3-0.1,1.6-1.2,2.2
				c-1.1,0.6-2.3,0.9-3.5,1.1c-1.9,0.3-3-0.3-3.8-2.2c-0.5-1.3-0.9-2.6-1.1-4c-0.9-6.2-1.1-12.4-0.1-18.6c0.1-0.7,0.3-1.4,0.6-2
				c0.3-0.9,1-1.5,1.9-1.8c1.3-0.3,2.6-0.6,3.9-0.7c1.8-0.1,2.6,0.9,2.3,2.7c-0.3,1.8-0.6,3.6-0.7,5.4C97.9,133,98,134.4,98,135.8z"
				/>
			<path class="st0" d="M176.3,133c-0.1,1.3-0.5,2.6-1,3.8c-1.9,4.9-4.7,9.3-8.3,13.1c-2.8,2.9-6.1,3.5-9.9,3.2
				c-0.2,0-0.4-0.1-0.6-0.1c-4.1-0.6-5.5-2.3-6.6-6.2c-0.2-0.6-0.3-1.3-0.4-1.9c-0.5,0.1-0.6,0.4-0.7,0.7c-0.9,1.4-1.9,2.7-2.9,4
				c-1.8,2.2-5.9,3.2-8.5,2.1c-0.8-0.4-1.5-0.9-2.1-1.6c-1.3-1.7-2.1-3.5-2.3-5.6c-0.3-4.9,0.3-9.7,2.4-14.1c2.4-5,6.3-7,12.1-6.7
				c1.3,0.1,2.1,0.5,3.6,1.6c0.1,0,0.2-0.1,0.2-0.1c1.6-3.2,3.1-3.2,6.7-2.7c0.7,0.1,1,0.6,1.1,1.3c0.1,1.8,0.2,3.6,0.1,5.4
				c-0.5,5.5-1.1,10.9-1.1,16.5c0,1.5,0.2,2.9,0.8,4.3c0.9,2.1,2.6,2.6,4.5,1.3c2.5-1.7,4.4-4.1,5.9-6.7c1.7-2.9,3.1-6,4.4-9.1
				c0.4-1,1-1.8,1.4-2.8c0.1-0.4,0.5-0.5,0.8-0.4C176.5,132.4,176.3,132.7,176.3,133z M149.2,125.5c-0.4-0.2-0.8-0.5-1.3-0.6
				c-1.6-0.6-2.2-0.3-2.9,1.2c-0.5,1.1-0.8,2.2-1.2,3.4c-1.4,4.7-2.7,9.4-3.1,14.3c-0.1,2,0.1,3.9,1.1,5.7c0.5,1,0.9,1,1.7,0.3
				c2-1.7,3.7-3.7,5-6c0.7-1.1,1-2.3,1.1-3.6c0.3-3.8,0.5-7.7,1-11.5C150.9,127,150.4,126.2,149.2,125.5z"/>
			<path class="st0" d="M181.7,135.8c1.1-1.9,2.1-3.8,3.4-5.5c1.2-1.6,2.6-3.1,4.1-4.3c2-1.6,4.3-2.3,6.9-1.8
				c0.8,0.1,1.6,0.2,2.4,0.4c3.3,0.8,5.6,3.4,6,6.8c0.3,2.3,0,4.5-0.2,6.8c-0.2,2.8-0.6,5.6-0.2,8.4c0.2,1.3,0.6,2.5,1.3,3.6
				c0.4,0.6,0.7,0.7,1.4,0.4c1.1-0.6,2.2-1.3,3.2-2.1c5.3-4.4,9-9.8,10.8-16.5c0.2-0.7,0.3-1.4,0.4-2.1c0-0.2,0.1-0.4,0.3-0.4
				c0.3,0,0.5,0.1,0.5,0.4c0,0.4,0,0.8-0.1,1.1c-0.7,5.3-3.1,9.9-6.1,14.2c-1.4,2-3,3.6-4.7,5.3c-2.3,2.3-5.2,2.9-8.4,2.6
				c-0.8-0.1-1.7-0.2-2.5-0.4c-2.1-0.5-3.4-1.8-4.1-3.8c-0.8-2.5-1-5-0.8-7.6c0.4-4.5,0.7-9,0.9-13.5c0.1-2.5-0.6-2.9-2.8-1.9
				c-1.1,0.5-2.1,1.3-3,2.1c-2.1,2.1-3.8,4.5-5,7.2c-1.4,3.1-2.3,6.3-3.1,9.6c-0.2,0.6,0.1,1.2,0.2,1.8c0.2,0.9,0.7,1.8,0.7,2.7
				c0.1,1.3-0.1,1.6-1.2,2.2c-1.1,0.6-2.3,0.9-3.5,1.1c-1.9,0.3-3-0.3-3.8-2.2c-0.5-1.3-0.9-2.6-1.1-4c-0.9-6.2-1.1-12.4-0.1-18.6
				c0.1-0.7,0.3-1.4,0.6-2c0.3-0.9,1-1.5,1.9-1.8c1.3-0.3,2.6-0.6,3.9-0.7c1.8-0.1,2.6,0.9,2.3,2.7c-0.3,1.8-0.6,3.6-0.7,5.4
				C181.7,133,181.7,134.4,181.7,135.8z"/>
			<path class="st0" d="M262.4,131.3c0,0.6-0.1,1.2-0.2,1.8c-0.7,3.9-2.3,7.5-4.1,11c-1.5,3-3.4,5.8-5.4,8.5
				c-3.6,4.9-10.9,4.6-14.5,2.1c-2.9-1.9-4.8-4.5-6-7.7c-0.2-0.5-0.2-1.1-0.7-1.6c-0.7,1.5-1.5,2.9-2.5,4.2
				c-1.5,1.9-3.3,3.4-5.8,3.9c-3.5,0.7-6.9-1.1-8.4-4.3c-1.5-3.3-1.4-6.7-0.7-10.2c0.1-0.4,0.2-0.8,0.3-1.2c1.6-6,5.7-9.6,12-10.3
				c1.4-0.2,2.8-0.3,4.3-0.1c1.1,0.1,1.1,0.1,1.3-1c0.5-3.1,1-6.2,1.8-9.2c1.2-5,2.9-9.8,6-14c1.6-2.2,3.6-3.7,6.3-4.3
				c1-0.2,2-0.2,3-0.1c1.6,0.2,3.2,0.6,4.7,1.1c1.7,0.6,2.7,1.7,3,3.4c0.4,1.8,0.3,3.7-0.2,5.5c-0.7,2.8-2,5.4-3.4,7.9
				c-1.1,2.1-2.4,4.1-3.6,6.1c-1.2,2-2.7,3.6-4.2,5.4c-1.6,2-3.4,3.8-5.3,5.6c-0.4,0.4-0.6,0.8-0.6,1.4c0.1,5,0.5,10,1.9,14.9
				c0.4,1.5,1.2,2.8,2.2,4c1.6,1.8,2.3,1.6,3.9,0.7c1.2-0.7,2.2-1.5,3.1-2.5c2.4-2.8,4.5-5.9,6-9.3c0.9-2,1.8-4,2.7-6
				c0.4-1,0.7-2.1,0.9-3.1c0.2-0.8,0.5-1.6,0.9-2.4c0.1-0.3,0.3-0.5,0.6-0.5C262,130.7,262.4,130.7,262.4,131.3z M230.3,128.3
				c-0.3-0.1-0.6-0.1-0.7-0.1c-1,0-1.7,0.3-2.3,0.9c-1.5,1.4-2.7,2.9-3.4,4.8c-1.2,2.9-1.7,6-2,9.1c-0.2,1.9-0.5,3.8-0.1,5.7
				c0.2,0.9,0.6,1.7,1.2,2.4c0.4,0.4,0.7,0.5,1.2,0.2c0.7-0.6,1.4-1.1,2-1.8c2-2.1,3.3-4.6,4.5-7.2c0.3-0.6,0.2-1.2,0.2-1.8
				c-0.3-3.6-0.4-7.3,0.3-10.9C231.4,128.8,231.2,128.5,230.3,128.3z M239.7,132c0.5-0.5,0.8-0.9,1.2-1.3c1.1-1.3,2.1-2.5,3.2-3.8
				c3.4-3.8,5.9-8.1,7.8-12.8c0.7-1.8,1.2-3.7,1.5-5.6c0.3-2.4,0.1-4.8-1.4-7c-0.8,0.3-1.2,0.8-1.7,1.3c-4.1,3.8-6.5,8.7-7.9,14
				c-1.1,4.4-1.8,8.9-2.6,13.4C239.7,130.7,239.5,131.3,239.7,132z"/>
			<path class="st0" d="M299.9,133c-0.1,1.3-0.5,2.6-1,3.8c-1.9,4.9-4.7,9.3-8.3,13.1c-2.8,2.9-6.1,3.5-9.9,3.2
				c-0.2,0-0.4-0.1-0.6-0.1c-4.1-0.6-5.5-2.3-6.6-6.2c-0.2-0.6-0.3-1.3-0.4-1.9c-0.5,0.1-0.6,0.4-0.7,0.7c-0.9,1.4-1.9,2.7-2.9,4
				c-1.8,2.2-5.9,3.2-8.5,2.1c-0.8-0.4-1.5-0.9-2.1-1.6c-1.3-1.7-2.1-3.5-2.3-5.6c-0.3-4.9,0.3-9.7,2.4-14.1c2.4-5,6.3-7,12.1-6.7
				c1.3,0.1,2.1,0.5,3.6,1.6c0.1,0,0.2-0.1,0.2-0.1c1.6-3.2,3.1-3.2,6.7-2.7c0.7,0.1,1,0.6,1.1,1.3c0.1,1.8,0.2,3.6,0.1,5.4
				c-0.5,5.5-1.1,10.9-1.1,16.5c0,1.5,0.2,2.9,0.8,4.3c0.9,2.1,2.6,2.6,4.5,1.3c2.5-1.7,4.4-4.1,5.9-6.7c1.7-2.9,3.1-6,4.4-9.1
				c0.4-1,1-1.8,1.4-2.8c0.1-0.4,0.5-0.5,0.8-0.4C300.1,132.4,299.9,132.7,299.9,133z M272.8,125.5c-0.4-0.2-0.8-0.5-1.3-0.6
				c-1.6-0.6-2.2-0.3-2.9,1.2c-0.5,1.1-0.8,2.2-1.2,3.4c-1.4,4.7-2.7,9.4-3.1,14.3c-0.1,2,0.1,3.9,1.1,5.7c0.5,1,0.9,1,1.7,0.3
				c2-1.7,3.7-3.7,5-6c0.7-1.1,1-2.3,1.1-3.6c0.3-3.8,0.5-7.7,1-11.5C274.5,127,273.9,126.2,272.8,125.5z"/>
			<path class="st0" d="M321,136.1c-0.2,2.9,0.6,6,2.1,9c1.4,2.9,3.6,5,6.5,6.3c0.9,0.4,1.8,0.5,2.7,0.1c3.3-1.2,6.3-2.9,9-5.1
				c1.6-1.3,3.1-2.8,4.5-4.3c2.6-2.7,4.7-5.7,5.8-9.3c0.2-0.5,0.4-1,0.6-1.4c0.2-0.5,0.7-0.5,1.1-0.4c0.6,0.1,0.5,0.5,0.5,0.9
				c0,0.8-0.1,1.6-0.4,2.4c-0.8,1.6-1.3,3.3-1.8,4.9c-1.4,4.1-4,7.3-7.2,10c-2.8,2.3-5.9,4.1-9.6,4.7c-4.4,0.7-8.7,0.4-12.8-1.4
				c-3.4-1.4-5.8-3.9-7.4-7.1c-1.5-2.9-2.2-6-2.2-9.2c0.1-6.1,0.9-12.1,2.8-17.9c1.7-4.9,4.3-9.3,7.4-13.4c0.8-1.1,1.8-2,2.8-2.8
				c2.1-1.9,4.6-2.5,7.4-2.2c2,0.2,4,0.2,5.9,0.6c2.5,0.6,4.2,2,5.2,4.4c2,4.7,2,9.4,0.2,14.1c-0.4,1.2-0.9,1.5-1.9,1.4
				c-1-0.1-1.4-0.4-1.5-1.4c-0.1-0.9,0-1.9,0.1-2.8c0.2-2.3,0.4-4.6-0.1-6.9c-0.6-2.4-1.6-4.6-3.5-6.2c-1.2-1-1.4-1-2.6-0.1
				c-1.6,1.2-3,2.6-4.2,4.2c-5.2,7-8.2,14.8-9.1,23.4C321.2,132.1,321,133.9,321,136.1z"/>
			<path class="st0" d="M391.5,133c-0.1,1.3-0.5,2.6-1,3.8c-1.9,4.9-4.7,9.3-8.3,13.1c-2.8,2.9-6.1,3.5-9.9,3.2
				c-0.2,0-0.4-0.1-0.6-0.1c-4.1-0.6-5.5-2.3-6.6-6.2c-0.2-0.6-0.3-1.3-0.4-1.9c-0.5,0.1-0.6,0.4-0.7,0.7c-0.9,1.4-1.9,2.7-2.9,4
				c-1.8,2.2-5.9,3.2-8.5,2.1c-0.8-0.4-1.5-0.9-2.1-1.6c-1.3-1.7-2.1-3.5-2.3-5.6c-0.3-4.9,0.3-9.7,2.4-14.1c2.4-5,6.3-7,12.1-6.7
				c1.3,0.1,2.1,0.5,3.6,1.6c0.1,0,0.2-0.1,0.2-0.1c1.6-3.2,3.1-3.2,6.7-2.7c0.7,0.1,1,0.6,1.1,1.3c0.1,1.8,0.2,3.6,0.1,5.4
				c-0.5,5.5-1.1,10.9-1.1,16.5c0,1.5,0.2,2.9,0.8,4.3c0.9,2.1,2.6,2.6,4.5,1.3c2.5-1.7,4.4-4.1,5.9-6.7c1.7-2.9,3.1-6,4.4-9.1
				c0.4-1,1-1.8,1.4-2.8c0.1-0.4,0.5-0.5,0.8-0.4C391.7,132.4,391.5,132.7,391.5,133z M364.3,125.5c-0.4-0.2-0.8-0.5-1.3-0.6
				c-1.6-0.6-2.2-0.3-2.9,1.2c-0.5,1.1-0.8,2.2-1.2,3.4c-1.4,4.7-2.7,9.4-3.1,14.3c-0.1,2,0.1,3.9,1.1,5.7c0.5,1,0.9,1,1.7,0.3
				c2-1.7,3.7-3.7,5-6c0.7-1.1,1-2.3,1.1-3.6c0.3-3.8,0.5-7.7,1-11.5C366.1,127,365.5,126.2,364.3,125.5z"/>
			<path class="st0" d="M416.8,133c-0.4,1.4-0.7,2.8-1.2,4.1c-1.6,3.6-3.6,7-5.8,10.3c-1.5,2.3-3.6,3.8-6.5,4.3
				c-2.2,0.4-4.3,0.7-6.5,0.3c-2.3-0.4-4.1-1.7-5.3-3.7c-1.4-2.3-2.1-4.8-2.5-7.4c-1.4-7.4-1.8-14.9-1.7-22.4
				c0-3.4,0.1-6.8,0.9-10.2c0.3-1.4,0.7-2.8,1.4-4.2c2.3-4.9,6.3-7,11.6-6c0.3,0.1,0.7,0.1,1,0.2c2.9,0.6,4,1.7,4.5,4.6
				c0.2,0.9,0.2,1.9,0.3,2.9c-0.6,5.9-1.7,11.7-4.4,17.2c-1.7,3.4-3.4,6.8-5.3,10.1c-0.3,0.5-0.5,1-0.4,1.6c0.4,2.9,0.8,5.8,1.7,8.6
				c0.6,2.2,1.6,4.1,3.3,5.8c0.9,0.9,1,0.9,2.1,0.3c2.6-1.6,4.6-3.8,6.4-6.2c2.2-3.1,4.2-6.3,5.4-10c0.1-0.2,0.1-0.4,0.2-0.5
				c0.2-0.4,0.5-0.5,0.8-0.4C417,132.4,416.9,132.7,416.8,133z M396.4,131.3c0.8-0.8,1.1-1.6,1.5-2.4c3.6-6.1,5.8-12.7,6.3-19.9
				c0.2-2.7,0-5.2-1.3-7.6c-0.8-1.4-1-1.4-2-0.2c-2.9,3.5-4.4,7.6-4.8,12.1C395.7,119.2,395.9,125.1,396.4,131.3z"/>
			<path class="st0" d="M433.2,131.3c0,1.4-0.3,2.8-0.7,4.2c-0.8,2.8-1.6,5.5-2.9,8.2c-0.6,1.3-1.5,2.5-2.4,3.7
				c-1.8,2.2-4.1,3.4-7,3.7c-1.4,0.2-2.7,0.4-4.1,0c-2.2-0.5-3.8-1.7-4.4-3.9c-0.4-1.3-0.7-2.7-0.7-4c-0.2-4.7,0.1-9.4,0.8-14
				c0.3-1.9,1.1-3.6,2.2-5.2c0.5-0.8,1.3-1.2,2.2-1.3c0.7,0,1.4-0.1,2.1,0c1.3,0,1.6,0.3,1.8,1.5c0.3,1.7,0.3,3.4,0.1,5.1
				c-0.3,3.1-0.5,6.1-0.6,9.2c-0.1,2.6-0.1,5.1,0.7,7.6c0.3,0.7,0.5,1.5,1.1,2.2c1.7-1.2,3.1-2.5,4.3-4.2c2.7-3.8,4.6-7.9,6-12.4
				c0.1-0.3,0.1-0.6,0.2-0.8c0.2-0.4,0.6-0.5,1-0.4C433.3,130.7,433.2,131,433.2,131.3z M415.5,113.7c-0.8-1.5,0.5-4.2,2.2-4.6
				c1-0.3,2.1-0.5,3.2-0.4c1,0.1,1.3,0.3,1.5,1.4c0.1,1.2,0.2,2.4-0.2,3.6c-0.3,0.9-0.3,1.9,0.5,2.6c-1.6,1.3-4.6,0.5-5.7-0.6
				C416.4,115.1,415.9,114.4,415.5,113.7z"/>
			<path class="st0" d="M439.7,132.3c4.2,4.1,7,9,9.1,14.4c1.8-1.1,3.2-2.3,4.4-3.8c2.1-2.4,3.7-5,4.6-8.1c0.1-0.5,0.3-1,0.5-1.5
				c0.1-0.3,0.4-0.5,0.8-0.4c0.4,0.1,0.4,0.4,0.4,0.7c-0.3,3.1-1.7,5.7-3.4,8.2c-1.5,2.3-3.4,4.3-5.7,5.9c-1,0.7-0.9,0.7-0.6,1.8
				c1,3.5,1.3,7.1,0.7,10.7c-0.3,1.9-0.9,3.7-2.3,5.1c-1.5,1.5-3.4,2.2-5.5,2.5c-2.1,0.3-4.3,0.4-6.3-0.2c-2.6-0.8-4.1-2.6-4.1-5.3
				c0-3.1,1.2-5.6,3.5-7.6c1.5-1.3,3.3-2.2,5.1-3.1c1.1-0.6,1.4-1.2,1.3-2.5c-0.3-2.8-1.3-5.3-2.8-7.7c-2.3-3.7-5.1-6.9-7.8-10.3
				c-1.2-1.5-2.2-3-2.8-4.9c-0.9-3,0.1-5.9,2.8-7.5c2.8-1.7,5.9-2.4,9.1-1.5c0.9,0.3,1.8,0.5,2.7,0.8c2.4,1,3.4,3,2.9,5.5
				c-0.6,2.7-2.2,4.8-4.3,6.5C441.3,130.9,440.6,131.5,439.7,132.3z M442.2,152.8c-2,1-3.6,2-5,3.3c-0.9,0.8-1.5,1.8-1.8,3
				c-0.7,2.5,0.3,5.1,2.5,6.5c0.6,0.4,1,0.3,1.4-0.2c0.1-0.2,0.2-0.3,0.3-0.4C442,161.3,442.6,157.2,442.2,152.8z M438.9,131.2
				c1.5-1.2,2.9-2.4,4.2-3.9c0.8-0.9,1.3-2,1.6-3.1c0.5-1.9,0-3.4-1.5-4.7c-0.6-0.5-1.1-0.6-1.8-0.2c-1.5,0.9-3,1.9-3.9,3.4
				c-1.1,1.8-1.7,3.8-0.6,5.9C437.4,129.6,438.1,130.5,438.9,131.2z"/>
			<path class="st0" d="M469.4,117.8c0.5,0.3,1.1,0.1,1.7,0.1c1.5-0.1,2.9-0.2,4.4-0.4c1.2-0.1,2.3,0.1,3.4,0.2
				c0.8,0.1,1.3,0.8,1.7,1.5c-1.1,0.5-2.1,0.6-3.2,0.6c-2.5,0-4.9,0.1-7.4,0.3c-0.7,0.1-1.1,0.2-1.2,1c-0.9,5.9-1.9,11.7-1.5,17.7
				c0.2,3.6,1.2,7,2.9,10.2c1.2,2.1,3,3.2,5.4,3.4c1.1,0.1,2.2-0.1,3.1-0.7c2.7-1.7,4.9-4.1,6.7-6.7c1.9-2.6,3.3-5.5,4.4-8.6
				c0.5-1.4,0.7-2.9,0.9-4.4c0-0.3,0.1-0.7,0.2-1c0.1-0.3,0.3-0.3,0.6-0.3c0.3,0,0.3,0.2,0.3,0.4c0,1.6-0.1,3.1-0.4,4.7
				c-1.2,5.9-4.3,10.7-8.6,14.8c-2.8,2.6-6.3,3.9-10.1,4.1c-1.9,0.1-3.8,0.2-5.7-0.2c-3.1-0.8-5.3-2.5-6.4-5.7
				c-1.1-3.3-1.8-6.6-1.9-10c-0.1-4.8,0.4-9.5,1-14.2c0.1-0.9,0.3-1.9,0.4-2.8c0.1-0.9,0-1-0.8-0.9c-3,0.4-6,0.3-8.9,0.7
				c-0.3,0-0.7,0-1-0.2c-0.3-0.2-0.6-0.3-0.6-0.7c0-0.5,0.4-0.6,0.8-0.7c1.1-0.4,2.3-0.3,3.5-0.5c2.1-0.3,4.1-0.4,6.2-0.6
				c1.2-0.1,1.3-0.1,1.4-1.3c0.3-3,1.2-5.8,2.2-8.7c0.7-1.9,2-2.8,4-2.8c1.1,0,2.3-0.1,3.4,0.2c1.3,0.3,1.8,1,1.5,2.3
				c-0.2,0.8-0.5,1.5-0.7,2.3C470.4,113,469.6,115.3,469.4,117.8z"/>
			<path class="st0" d="M499.6,152.3c-1.9-0.1-4.2-0.3-6.4-1.2c-3.4-1.3-5.4-3.8-5.9-7.4c-0.7-5.4,0.2-10.5,2.7-15.3
				c1.6-3.2,4.2-4.5,7.7-4.2c1.7,0.1,3.4,0.3,5,0.8c0.7,0.2,1.5,0.4,2.1,0.8c1.4,0.9,1.8,2.2,1.1,3.7c-0.8,1.7-2,3.1-3.4,4.3
				c-1.9,1.6-3.8,3.1-5.8,4.5c-0.6,0.4-0.9,0.9-0.9,1.6c-0.2,2.1,0,4.2,0.6,6.2c0.4,1.2,1,2.2,1.9,3.1c0.8,0.7,1.6,0.9,2.6,0.7
				c2.2-0.6,4.3-1.5,6.2-2.7c3.4-2,6.6-4.3,9.2-7.4c1.7-2,3.1-4.2,4.3-6.5c0.2-0.4,0.4-0.7,0.7-1.1c0.2-0.2,0.4-0.2,0.7-0.1
				c0.3,0.1,0.3,0.4,0.2,0.6c-1.5,3.9-3,7.8-6.1,10.8c-2.4,2.4-5,4.6-8,6.4C505.5,151.6,502.8,152.3,499.6,152.3z M496.3,136.4
				c2.1-1.4,4.1-2.9,5.7-4.9c0.5-0.5,0.8-1.2,1.1-1.8c0.3-0.9,0.2-1.7-0.3-2.4c-0.3-0.5-0.7-0.6-1.2-0.3c-1.1,0.6-2,1.5-2.6,2.5
				C497.5,131.6,496.7,133.9,496.3,136.4z"/>
			<path class="st0" d="M525.4,135.8c1.1-1.9,2.1-3.8,3.4-5.5c1.2-1.6,2.6-3.1,4.1-4.3c2-1.6,4.3-2.3,6.9-1.8
				c0.8,0.1,1.6,0.2,2.4,0.4c3.3,0.8,5.6,3.4,6,6.8c0.3,2.3,0,4.5-0.2,6.8c-0.2,2.8-0.6,5.6-0.2,8.4c0.2,1.3,0.6,2.5,1.3,3.6
				c0.4,0.6,0.7,0.7,1.4,0.4c1.1-0.6,2.2-1.3,3.2-2.1c5.3-4.4,9-9.8,10.8-16.5c0.2-0.7,0.3-1.4,0.4-2.1c0-0.2,0.1-0.4,0.3-0.4
				c0.3,0,0.5,0.1,0.5,0.4c0,0.4,0,0.8-0.1,1.1c-0.7,5.3-3.1,9.9-6.1,14.2c-1.4,2-3,3.6-4.7,5.3c-2.3,2.3-5.2,2.9-8.4,2.6
				c-0.8-0.1-1.7-0.2-2.5-0.4c-2.1-0.5-3.4-1.8-4.1-3.8c-0.8-2.5-1-5-0.8-7.6c0.4-4.5,0.7-9,0.9-13.5c0.1-2.5-0.6-2.9-2.8-1.9
				c-1.1,0.5-2.1,1.3-3,2.1c-2.1,2.1-3.8,4.5-5,7.2c-1.4,3.1-2.3,6.3-3.1,9.6c-0.2,0.6,0.1,1.2,0.2,1.8c0.2,0.9,0.7,1.8,0.7,2.7
				c0.1,1.3-0.1,1.6-1.2,2.2c-1.1,0.6-2.3,0.9-3.5,1.1c-1.9,0.3-3-0.3-3.8-2.2c-0.5-1.3-0.9-2.6-1.1-4c-0.9-6.2-1.1-12.4-0.1-18.6
				c0.1-0.7,0.3-1.4,0.6-2c0.3-0.9,1-1.5,1.9-1.8c1.3-0.3,2.6-0.6,3.9-0.7c1.8-0.1,2.6,0.9,2.3,2.7c-0.3,1.8-0.6,3.6-0.7,5.4
				C525.4,133,525.4,134.4,525.4,135.8z"/>
			<path class="st0" d="M572.9,152.3c-1.9-0.1-4.2-0.3-6.4-1.2c-3.4-1.3-5.4-3.8-5.9-7.4c-0.7-5.4,0.2-10.5,2.7-15.3
				c1.6-3.2,4.2-4.5,7.7-4.2c1.7,0.1,3.4,0.3,5,0.8c0.7,0.2,1.5,0.4,2.1,0.8c1.4,0.9,1.8,2.2,1.1,3.7c-0.8,1.7-2,3.1-3.4,4.3
				c-1.9,1.6-3.8,3.1-5.8,4.5c-0.6,0.4-0.9,0.9-0.9,1.6c-0.2,2.1,0,4.2,0.6,6.2c0.4,1.2,1,2.2,1.9,3.1c0.8,0.7,1.6,0.9,2.6,0.7
				c2.2-0.6,4.3-1.5,6.2-2.7c3.4-2,6.6-4.3,9.2-7.4c1.7-2,3.1-4.2,4.3-6.5c0.2-0.4,0.4-0.7,0.7-1.1c0.2-0.2,0.4-0.2,0.7-0.1
				c0.3,0.1,0.3,0.4,0.2,0.6c-1.5,3.9-3,7.8-6.1,10.8c-2.4,2.4-5,4.6-8,6.4C578.8,151.6,576.2,152.3,572.9,152.3z M569.6,136.4
				c2.1-1.4,4.1-2.9,5.7-4.9c0.5-0.5,0.8-1.2,1.1-1.8c0.3-0.9,0.2-1.7-0.3-2.4c-0.3-0.5-0.7-0.6-1.2-0.3c-1.1,0.6-2,1.5-2.6,2.5
				C570.9,131.6,570.1,133.9,569.6,136.4z"/>
		</g>
		<g>
			<g>
				<path class="st0" d="M25.9,132l-0.2-0.1l-0.2,0c-1.6,0.1-3,0.2-4.1,0.3c-1.1,0-2,0-2.8,0c-0.8,0-1.5,0-2.2-0.1
					c-0.4,0-0.8,0-1.3,0c0.4-1.7,0.8-3.4,1.2-5.1c0.5-2,0.9-3.8,1.4-5.6c0.4-1.8,0.8-3.4,1.1-4.8c0.3-1.5,0.6-2.8,0.8-3.9l0.1-0.6
					l-0.5-0.3c-2.2-1.1-4.6-1.1-7.2,0l-0.4,0.2l0,0.5c-0.1,2.6-0.5,5.7-1.2,9.1c-0.7,3.3-1.5,6.8-2.3,10.5c-0.1,0-0.1,0-0.2,0
					c-0.3,0-0.5,0-0.8,0H6.8l-0.2,0.2c-1,0.9-1.2,2-0.5,3.1l0.2,0.3h1.1c-0.7,3.5-1.4,7.1-1.9,10.7c-0.6,3.9-0.8,7.9-0.7,11.7l0,0.5
					l0.5,0.2c0.4,0.1,0.8,0.2,1.4,0.3c0.6,0.1,1.1,0.1,1.7,0.1c0.1,0,0.2,0,0.3,0c0.5,0,1,0,1.5-0.1c0.6-0.1,1.1-0.2,1.5-0.4
					l0.5-0.2l-0.1-0.6c-0.2-1.4-0.3-3-0.2-4.7c0.1-1.7,0.2-3.6,0.4-5.5c0.2-1.9,0.5-3.9,0.9-6c0.3-1.8,0.7-3.6,1-5.4
					c1.2,0.2,2.5,0.4,3.9,0.6c1.7,0.2,3.9,0.3,6.5,0.3l0.2,0c0.9-0.2,1.6-0.6,2.1-1.1c0.5-0.5,0.8-1.1,0.8-1.6
					c0.1-0.6-0.1-1.2-0.4-1.7C27,132.6,26.5,132.2,25.9,132z"/>
			</g>
			<g>
				<path class="st0" d="M50.1,104.8c-0.4-1-1-1.3-1.5-1.5l-0.2-0.1l-0.2,0c-2,0.4-4.2,0.6-6.6,0.7c-2.4,0.1-4.9,0.1-7.4,0
					c-2.5-0.1-5.1-0.1-7.7-0.2c-2.6-0.1-5.2-0.1-7.6,0.1c-2.5,0.1-4.8,0.4-6.9,0.9c-2.2,0.5-4.2,1.2-5.9,2.3
					c-1.7,1.1-3.1,2.5-4.2,4.3c-1.1,1.8-1.7,4-1.9,6.7L0,118.9l4.1-0.1l0-0.7c0.1-2.2,0.3-4,0.7-5.3c0.3-1.2,0.9-2.1,1.8-2.7
					c0.9-0.6,2.3-1.1,4.1-1.2c1.9-0.2,4.5-0.2,7.7,0c3.3,0.1,7.3,0.4,12.1,0.7c4.7,0.3,10.6,0.6,17.5,0.9l0.1,0l0.1,0
					c0.8-0.2,1.4-0.7,1.8-1.4c0.3-0.6,0.5-1.4,0.5-2.1C50.5,106.2,50.4,105.5,50.1,104.8z"/>
			</g>
		</g>
	</g>
</g>
<linearGradient id="SVGID_1_" gradientUnits="userSpaceOnUse" x1="268.5331" y1="-1.5843" x2="329.063" y2="58.9456">
	<stop  offset="0" style="stop-color:#F89948"/>
	<stop  offset="1" style="stop-color:#F3716E"/>
</linearGradient>
<path class="st1" d="M317.5,0c-7.6,0-14.8,3.4-19.8,9c-5-5.7-12.1-9-19.8-9c-14.6,0-26.4,11.8-26.4,26.4c0,5.6,1.5,11,4,15.4
	c4,6.7,9.2,12.5,19.8,15.9c1.4,6.2,7.3,7.4,12,7.4c1.8,0,3.6-0.3,5.1-0.8c13.9-4.9,17.6-18.1,17.6-18.1s0,0-0.1,0
	c-1.6,0.7-3.8,1.1-6.2,1.1c-1,0-2.1-0.1-3.1-0.2c-4.3-0.6-6.5-1.7-9.2-2.4c-2.3-0.6-4.6-1-6.5-1c-0.6,0-1.2,0-1.7,0.1
	c-3.7,0.7-6.9,3.4-7.6,7.8c3.8,3.2,11.5,3.8,16.4,3.8c2.6,0,4.5-0.2,4.5-0.2c0,0,0,0,0,0c0,0,0,0-0.1,0.1c0.1,0,0.1-0.1,0.1-0.1
	c-14.1,6.4-31.6-4.5-37.4-16.4c-1.8-3.6-1.9-8.2-1.9-12.2C257.3,15.6,267,5,277.9,5c7,0,13.4,3.6,17,9.7l2.8,4.7l2.8-4.7
	c3.6-6.1,10-9.7,17-9.7c10.9,0,19.8,10.4,19.8,21.4c0,26.8-32.6,46.4-40.6,49c-0.8,0.3-1.2,0.9-1.1,2c0.3,1,0.8,1.1,1.3,1.2
	c0.4,0.1,0.9,0.1,1.5-0.1c9.5-3.1,45.5-21.2,45.5-52.2C343.9,11.8,332.1,0,317.5,0z"/>
</svg>
